<svg id="Capa_1" enable-background="new 0 0 512 512" height="512" viewBox="0 0 512 512" width="512" xmlns="http://www.w3.org/2000/svg" xmlns:xlink="http://www.w3.org/1999/xlink"><linearGradient id="lg1"><stop offset="0" stop-color="#5558ff"/><stop offset="1" stop-color="#00c0ff"/></linearGradient><linearGradient id="SVGID_1_" gradientUnits="userSpaceOnUse" x1="256" x2="256" xlink:href="#lg1" y1="421" y2="91"/><linearGradient id="lg2"><stop offset="0" stop-color="#addcff"/><stop offset=".5028" stop-color="#eaf6ff"/><stop offset="1" stop-color="#eaf6ff"/></linearGradient><linearGradient id="SVGID_2_" gradientUnits="userSpaceOnUse" x1="256" x2="256" xlink:href="#lg2" y1="361" y2="151"/><linearGradient id="SVGID_3_" gradientUnits="userSpaceOnUse" x1="256" x2="256" xlink:href="#lg1" y1="301" y2="211"/><linearGradient id="SVGID_4_" gradientUnits="userSpaceOnUse" x1="256" x2="256" xlink:href="#lg2" y1="512" y2="0"/><g><path d="m256 421c-138.662 0-248.617-149.883-253.187-156.27-3.75-5.215-3.75-12.246 0-17.461 4.57-6.386 114.525-156.269 253.187-156.269s248.617 149.883 253.188 156.27c3.75 5.215 3.75 12.246 0 17.461-4.571 6.386-114.526 156.269-253.188 156.269z" fill="url(#SVGID_1_)"/><path d="m256 361c-57.891 0-105-47.109-105-105s47.109-105 105-105 105 47.109 105 105-47.109 105-105 105z" fill="url(#SVGID_2_)"/><path d="m256 301c-24.814 0-45-20.186-45-45s20.186-45 45-45 45 20.186 45 45-20.186 45-45 45z" fill="url(#SVGID_3_)"/><g><g><path d="m256 0c-8.291 0-15 6.709-15 15v30c0 8.291 6.709 15 15 15s15-6.709 15-15v-30c0-8.291-6.709-15-15-15zm0 452c-8.291 0-15 6.709-15 15v30c0 8.291 6.709 15 15 15s15-6.709 15-15v-30c0-8.291-6.709-15-15-15zm-107.007-411.347c-4.16-7.178-13.374-9.639-20.493-5.493-7.178 4.146-9.639 13.315-5.493 20.493l15 25.986c4.192 7.237 13.395 9.593 20.493 5.493 7.178-4.146 9.639-13.315 5.493-20.493zm225 389.707c-4.175-7.178-13.374-9.653-20.493-5.493-7.178 4.146-9.639 13.315-5.493 20.493l15 25.986c4.192 7.237 13.395 9.593 20.493 5.493 7.178-4.146 9.639-13.315 5.493-20.493zm-20.493-343.227c7.109 4.106 16.308 1.732 20.493-5.493l15-25.986c4.146-7.178 1.685-16.348-5.493-20.493s-16.348-1.685-20.493 5.493l-15 25.986c-4.146 7.177-1.685 16.347 5.493 20.493zm-195 337.734c-7.192-4.16-16.333-1.685-20.493 5.493l-15 25.986c-4.146 7.178-1.685 16.348 5.493 20.493 7.109 4.106 16.308 1.732 20.493-5.493l15-25.986c4.146-7.177 1.685-16.347-5.493-20.493z" fill="url(#SVGID_4_)"/></g></g></g></svg>