<svg id="Layer_1" data-name="Layer 1" xmlns="http://www.w3.org/2000/svg" viewBox="0 0 424.01 214.34"><title>World Map 1</title><path d="M314.34,76.6A100.22,100.22,0,0,0,264.12,90a100.81,100.81,0,0,0-100.6.09,100.8,100.8,0,1,0,0,174.61,100.85,100.85,0,0,0,100.6.1A100.8,100.8,0,1,0,314.34,76.6ZM213.55,177.41c0-2,.06-3.95.18-5.9.11,2,.17,3.91.17,5.9s-.06,4-.17,5.89C213.61,181.36,213.55,179.39,213.55,177.41Z" transform="translate(0.04 -72.09)" fill="#25519a" opacity="0.18" style="isolation:isolate"/><path d="M238.13,193.91c-.07.4-.13.8-.22,1.34.07.12.21.37.37.62.38.57.64.64,1.32.5a7.61,7.61,0,0,1,1-.06,2.4,2.4,0,0,0,.82-.1,4.48,4.48,0,0,1,2-.6,5.28,5.28,0,0,0,1.56-.54,8.25,8.25,0,0,1-.77,3.83c-.3.65-.59,1.31-.87,2a13.07,13.07,0,0,1-1.1,2.5,12.29,12.29,0,0,1-2.86,3.12,7.8,7.8,0,0,0-2.7,3.44,5.6,5.6,0,0,1-1.2,1.47,3.82,3.82,0,0,0-.77,1.11c-.27.69-.39,1.44-.64,2.14a1.09,1.09,0,0,0,.25,1.27c.39.34.31.7.23,1.15a2.7,2.7,0,0,0,.52,2.58,1.09,1.09,0,0,1,.29.61c.09,1.05.17,2.1.2,3.15a12.43,12.43,0,0,1-.11,2.2,2.86,2.86,0,0,1-1.39,1.95,25.6,25.6,0,0,1-2.53,1.22,8.45,8.45,0,0,1-1.16,1.46,1,1,0,0,0-.32,1.3,13.5,13.5,0,0,1,.72,3.93.92.92,0,0,1-.6.92c-.38.19-.8.32-1.18.51s-.61.35-.89.51a3.5,3.5,0,0,1,.06,2.34A2.32,2.32,0,0,0,228,241a4.36,4.36,0,0,0-1.38,1.59,18,18,0,0,1-1.89,2.5c-.1.12-.27.2-.35.33a4.1,4.1,0,0,1-3.25,1.72,16.19,16.19,0,0,0-2.83.26c-.29.09-.67,0-1,.19a1.12,1.12,0,0,1-1.46,0,1.88,1.88,0,0,0-.68-.19,4.32,4.32,0,0,1-.33-1.11c0-.31-.25-.62.13-1A1.6,1.6,0,0,0,215,244c-.39-1.11-.89-2.17-1.34-3.25-.07-.15-.11-.38-.23-.43-.83-.38-.91-1.21-1.05-1.92a26.71,26.71,0,0,1-.45-3.78,5.52,5.52,0,0,0-1-3,2,2,0,0,1-.36-1,2.42,2.42,0,0,0-.72-1.56c-.11-.13-.32-.24-.32-.36,0-1.07-.29-2.15.1-3.2.18-.48.31-1,.5-1.47a7.06,7.06,0,0,1,.71-1.58,2.78,2.78,0,0,0,.25-2.63,3.39,3.39,0,0,1-.22-1.52,3.52,3.52,0,0,0-.19-1.91q-.45-1.38-.93-2.76a2.52,2.52,0,0,0-.38-.68c-.55-.69-1.14-1.33-1.66-2-.36-.49-.64-1-.95-1.56a5.5,5.5,0,0,0,.59-2.42,16.57,16.57,0,0,1,.33-1.82,1.79,1.79,0,0,0-1.43-2.13c-.24-.06-.39-.11-.62.08a1.85,1.85,0,0,1-.73.24c-.57.12-1.19-.25-1.09-.78.18-.89-.46-1.16-.95-1.4a1.81,1.81,0,0,0-2,0c-.69.56-1.56.49-2.3.84a20.77,20.77,0,0,1-2.24.69,1.57,1.57,0,0,1-1.24,0,2,2,0,0,0-2.2.22c-1,.79-1.87.57-2.82-.49a12.14,12.14,0,0,0-2.31-2c-.69-.46-.86-1.31-1.19-2a7.51,7.51,0,0,0-1.64-2.89c-.32-.27-.53-.71-.91-1a1.33,1.33,0,0,1-.3-.7c-.17-.7-.31-1.4-.46-2.1a7.58,7.58,0,0,0,.63-5,1.34,1.34,0,0,1,0-.49,2.31,2.31,0,0,0-.28-1.6,1.37,1.37,0,0,1,.11-1.39c.69-1.34,1.27-2.73,2-4a5.88,5.88,0,0,1,1.7-2.17,6.67,6.67,0,0,0,2.34-2.35,2,2,0,0,0,.21-1.51,3,3,0,0,1,1.54-3.26,2.8,2.8,0,0,0,1.64-1.85c.15-.46.18-1,.8-1.22.32.88,1,.81,1.78.73.31,0,.59-.19.94,0a.76.76,0,0,0,.72-.14c.44-.58,1.13-.62,1.7-.92l1.14-.58a1.41,1.41,0,0,1,.45-.18c1-.05,1.95-.08,2.93-.11l.39,0c.38,0,.83-.18,1.11,0s.69-.39,1.07-.08a.52.52,0,0,0,.39,0,2.43,2.43,0,0,1,2.48.38c0-.09,0,0,0,0a1.92,1.92,0,0,0-.3,1.73,1.44,1.44,0,0,1-.37,1.18c-.31.39-.28.7.2,1,.2.09.33.31.52.42a2.66,2.66,0,0,0,1,.54,3.46,3.46,0,0,1,2.63,1.31c.56.72,1.4.8,2.15,1.1a10.44,10.44,0,0,0,1.34.32c.9-.67.92-.73.47-1.66.2-.24.39-.54.64-.79a1.52,1.52,0,0,1,2.06,0,5,5,0,0,0,1.38.57,20.7,20.7,0,0,0,3,1.05,5.26,5.26,0,0,0,3.39-.16c.11-.05.31-.12.34-.08.45.6,1.06.17,1.57.22.9.11,1.24-.33,1.6-1.5.22-.72.49-1.42.67-2.14a4,4,0,0,0,0-1.15c0-.63-.09-1.26-.14-2-.44.21-.93.46-1.43.69a1.52,1.52,0,0,1-1.76-.07,5.37,5.37,0,0,0-1.07-.54l-.92,1-2.36-1.62c-.17-.82-.17-.82-.62-1.15a8.46,8.46,0,0,0,.27-.91.56.56,0,0,0-.41-.77c-.09,0-.18-.36-.13-.51.19-.51-.11-.85-.28-1.23h-2.11l.45.66-.69.39-.5-.53c-.09.19-.23.35-.2.47a6.44,6.44,0,0,0,.34.7,3.7,3.7,0,0,1,.08.73,3.73,3.73,0,0,1,1.44,1.24l-.56-.14c-.14.22,0,.89-.63.38,0,.25,0,.57-.1.61-.49.21-.95.59-1.62.27.32-.4-.69-1,.32-1.39l-.49-.11a11.42,11.42,0,0,0-1.25-2.05,1.61,1.61,0,0,1-.44-1.68,3.84,3.84,0,0,0,0-.77c-1.16-.54-2.1-1.53-3.35-2.05-.73-.3-.88-1-1.11-1.69a2.71,2.71,0,0,1-.07-.62l-.88.92-.26-1.35-.82.24a7.39,7.39,0,0,1-.24,1c-.17.44-.16.79.33,1a2.1,2.1,0,0,1,1.16,1.26c.32.66.69,1.29,1.56,1.34.09,0,.25,0,.26.1.26.92,1.32.91,1.79,1.58.16.22.34.38.2.72l-1.06-.58a.72.72,0,0,0-.24,1.12c.45.76,0,1.73-1,2.19.09-.35.16-.62.22-.89.16-.76.22-1.47-.6-2-.35-.21-.55-.64-.86-.92a2.3,2.3,0,0,0-.75-.42,4.2,4.2,0,0,1-2.1-2,3.7,3.7,0,0,1-.33-.82,2.07,2.07,0,0,0-1.56-1.44c-.65.5-1.27,1-1.93,1.45a1.12,1.12,0,0,1-.73.09,5.58,5.58,0,0,1-.72-.31,1.11,1.11,0,0,0-1.57,1.27.86.86,0,0,1-.43.91,6.11,6.11,0,0,0-2.68,2.55l.37.77c-.75.45-.79,1.56-1.74,1.88a.82.82,0,0,0-.4.42,1,1,0,0,1-1.15.57,2.53,2.53,0,0,0-1.5.3c-.67.35-.72.34-1.09-.3a1,1,0,0,0-1.28-.55,2.9,2.9,0,0,1-1.09-.12c-.14-.77-.29-1.42-.37-2.08a2,2,0,0,1,.11-.93,5.27,5.27,0,0,0-.16-4.47c.8-.22,1.35-1,2.4-.63a10.26,10.26,0,0,0,2.24.2c.55.06,1.09.16,1.63.27a.93.93,0,0,0,1.25-.88,11.47,11.47,0,0,0,0-2,1.08,1.08,0,0,0-.45-.67,2.26,2.26,0,0,1-.79-1,3.51,3.51,0,0,0-2.11-1.55l0-.86c.47.06.89-.44,1.47,0,.24.19.84-.1,1.35-.19l-.24-1.43c.18,0,.38,0,.4.06a.51.51,0,0,0,.63.34,2,2,0,0,0,.73-.24,13.15,13.15,0,0,0,1.1-.91l.07-.86a5.06,5.06,0,0,1,2.49-.74c.11-.29.23-.58.33-.88a1.93,1.93,0,0,1,2-1.35,5.92,5.92,0,0,0,1.57-.25.76.76,0,0,0,.4-.62,5.27,5.27,0,0,0-.42-2.19,5.24,5.24,0,0,1-.31-1.73,1.58,1.58,0,0,0,1.33-.92l-1.13.45c0-.15,0-.25,0-.27.23-.16.47-.31.71-.45s.45-.24.66-.37.42-.32.71-.54c.23.88-.85,1.76.3,2.28l-.82,1.15c.56.35.56.35.56.89l-.7-.3c.25,1.24.25,1.24,1.38,2a1.7,1.7,0,0,0,.28-.21,1.3,1.3,0,0,1,1.6-.26,3.14,3.14,0,0,0,2.66-.18,15.45,15.45,0,0,1,1.48-.55c.32-.08.5.08.37.46.66,0,1.21-.08,1.24-1,0-.18.54-.35.91-.56.1-2.33.31-2.95,1.24-3.4.7,1,.7,1,1.51.8.36-1-.23-2-.12-3.1a5.51,5.51,0,0,1,2.3-.52c.42,0,.84-.37,1.29,0,0,0,.2,0,.26-.09.54-.6,1.35-.43,2-.71-.44-.76-1.7-.21-1.91-1.29-.76.22-1.47.41-2.17.64a2.38,2.38,0,0,0-.68.37c-.43.33-.83.71-1.34.07-.05-.07-.37.07-.57.11-.29-.5.19-.49.48-.67a3.26,3.26,0,0,0-.63-.46c-.59-.25-.83-.48-.71-1a2.36,2.36,0,0,0-.38-2,9.84,9.84,0,0,1,1.42-1.4,4.72,4.72,0,0,0,1.06-1.27c.09-.13.09-.39.2-.44.73-.34.56-.92.44-1.51-.64-.58-1.44-.21-2.12-.38-.71.73-1.62,1.31-1.13,2.46a2.28,2.28,0,0,1-1.56,1.28c-1,.27-1.07,1.34-1.84,1.74-.07.65-.16,1.29-.19,1.94a5.52,5.52,0,0,0,.1,1,3,3,0,0,1,.9.42c.29.27.75.57.55,1.05s-.36,1.22-1.19,1.31-.74.14-.81.91c0,.39-.14.78-.19,1.17s-.09.87-.15,1.5a7.19,7.19,0,0,1-.74.17c-1.05.1-1.1.13-1.43,1.18l-1.25.14a3.31,3.31,0,0,1,0-1.15c.26-.6,0-1-.33-1.41s-.79-.76-.6-1.47c.09-.32-.31-.77-.53-1.24-.88.44-1.85.89-2.78,1.41a1.5,1.5,0,0,1-1.21,0,.92.92,0,0,1-.76-.65l.51-1.06-1-.18,1.11-1.26c-.67.25-.95-.2-1.29-.52.38-.27-.1-.87.61-1.06l-.67-.06v-.6l.58-.12-.23-.42,1.28-.3-.25-.5c.43-.12,1.12.05.8-.7l1.43-.63-.25-.76a9.14,9.14,0,0,1,1.22.44c.32.17.54.22.71-.2l-.66-.11c.77-.78,1.18-1.78,2.31-2-.09-.93.95-.75,1.29-1.38v-.81a7.85,7.85,0,0,0,2.15-1.62l-.33-1,.8.1-.3-.6.85-.47.34-1.21,0,0,1.08-.53c.09-.16-.54-.85.37-.53.14.05.4-.23.66-.4l.74.26c.11-.27.13-.68.64-.47l-.47-.4c.15-.41.58-.32,1.53.33.24-.18.5-.36.76-.57s.28-.62.69-.17l.18-.62,1.06.4-.61,1.06.17.12,1.25-1.7.06,1,1-1.57c.63.26.63.26.43,1l.71-.42,1.69,1.1-1.43.72c.94.21,1.9-.13,2.84.24l-.23.43a17.89,17.89,0,0,1,7,3.11c.84.61.85,1.18.11,1.94a2.48,2.48,0,0,1-2.32.78,15.08,15.08,0,0,1-4.81-1.9,4,4,0,0,0,.18.59c.14.26.35.46.48.75a1.78,1.78,0,0,0,1,.68c.75.29.73.26.83,1.11.06.55.23,1.09.34,1.63.22.06.53.07.56.17.2.69.85.49,1.29.67.15.06.54-.08.56-.19a1.15,1.15,0,0,0-.08-.8,3.63,3.63,0,0,0-.73-.66l.34-.85a.63.63,0,0,1,.28,0,3.51,3.51,0,0,0,2.4,1l-.87-1.34,1.92-1.5,1.22.84c.19-.39.4-.83.6-1.27,0-.09.09-.23.05-.27-.71-.8.25-1.3.36-2l-.59-.78c1.31.11,2.39.42,2.74,1.83-1.36.57-1.36.57-.86,1.91l1.4-.4c.07-.15.12-.21.12-.27a1.29,1.29,0,0,1,.92-1.41c.85-.32,1.65-.8,2.52-1a3.52,3.52,0,0,0,1.62-.89l.68.9-.65.3a2.59,2.59,0,0,0,1.79-.37,1.46,1.46,0,0,1,1.93-.08l1.44-.61.52,1.26L253,121l.75.1c.52-.62,0-1.14-.11-1.68a1.24,1.24,0,0,1,1.32-.4c.27.06.59-.15.8-.21l1.41.53c.1,0,.24.06.26.12.11.33.31.36.64.46a5.12,5.12,0,0,1,1.51,1,8.88,8.88,0,0,1,.77.82c.36-.35.56-.67.25-1.19a4.12,4.12,0,0,1-.25-1.12l-.85-.38a6.27,6.27,0,0,0,.35-1.42,5.64,5.64,0,0,0-.26-1.36,5.74,5.74,0,0,0,1.9-2.2c.2-.41.4-.81.87-.86.64,0,1.34-.32,1.92.1a1.16,1.16,0,0,1,.42.91,7.56,7.56,0,0,1-.49,2,.85.85,0,0,0,.15,1.06,1.15,1.15,0,0,1,.34,1.24,2.08,2.08,0,0,0,.7,2.56c-.35.84,0,1.85-.93,2.51a5.85,5.85,0,0,1-1.15.49,7.26,7.26,0,0,1-1.41,0,.81.81,0,0,0,1,.68,1.43,1.43,0,0,1,1.7,1,1.47,1.47,0,0,0-.3-1.43,3.62,3.62,0,0,1,.83-.3,1,1,0,0,0,.92-.78c.13-.59.54-1.13.28-1.81a.81.81,0,0,1,.28-.76,2.51,2.51,0,0,1,1.71-.51,3,3,0,0,1,.41,2.3c-.11.56.22.76.79.6a1.24,1.24,0,0,1,.43,0,.54.54,0,0,0,.4-.06l-.38-.18c-.93-.42-.95-.54-.25-1.33-.21-.43-.4-.88-.64-1.3a2,2,0,0,0-1.79-.49l-1.28.38a2.9,2.9,0,0,1-.21-1.72c.08-.37-.2-.84-.32-1.26l-.22,0a14.52,14.52,0,0,0,.76-1.32,3.43,3.43,0,0,0,.28-2.14,1.08,1.08,0,0,1,.48,1.31c-.3.74.32,1.25.29,1.9,0,.09.29.28.45.27.54,0,1.08-.1,1.86-.19L268,116c.27-.79.44-.82,1.47-.26.57-.22.35-.51,0-.78,1-.62,1.32-.66,2.21,0a2.35,2.35,0,0,0,1.87.67c.1,0,.23.08.5.19-1,.62-.66,1.68-1.18,2.61.9-.34.83,1.1,1.79.65l-.85-.69c.58-.51.55-.5.44-1.3a4.49,4.49,0,0,1,.12-.95c0-.2,0-.52-.09-.6a5.24,5.24,0,0,0-1.29-.66c-.88-.28-1.11-.61-.93-1.53a4.15,4.15,0,0,0,.11-.48c0-.63.4-.88,1-.91.86,0,1.7-.46,2.6-.11.21.08.51-.07.77-.12.79-.15.79-.15,1.12.58.3-.45.16-.81-.64-1.57l.54-.4-.57-.53.94.17c-.15-.43.71-.51.35-1a18.88,18.88,0,0,1,1.88-.64c.76-.18,1.56-.23,2.33-.38a8.27,8.27,0,0,1,2.87-.51c.45.07.16-.46.46-.46h.83l-.31,1.12c1,.25,1.54-.47,2.22-.9.1,0,.16-.21.25-.22.54,0,1.09,0,1.7,0l-.38-.6c.36-.38.73-.78,1.12-1.15a.69.69,0,0,1,.44-.2c.53,0,1-.18,1.55-.24s.84.28,1.32.46l-.25.63,1.52.38v.87a11.16,11.16,0,0,1,2-.82,10.14,10.14,0,0,1,2.07,0,1,1,0,0,0,.91,1,2.31,2.31,0,0,1,.84,1.31,2.08,2.08,0,0,1-.35.57,1.84,1.84,0,0,1,.26.34,3.72,3.72,0,0,1,.18.56c-.58.19-1.13.39-1.69.55s-1.28.28-1.9.47c-.25.08-.59.29-.64.5-.23,1-.93,1.32-1.72,1.69a10.7,10.7,0,0,0-1.44.95c.84,0,1.26-.62,2-.57a4.65,4.65,0,0,0,1.68-.57c-.42-.53-.07-.87.3-1.2.37.08.8-.14,1.06.41.16.35.79.24,1.38-.13l.35.47a1.13,1.13,0,0,0,.24-.17,2.21,2.21,0,0,1,2.5-.53,8.9,8.9,0,0,0,1.61.15v1a6.77,6.77,0,0,0,1.66.56,5.47,5.47,0,0,1,2.28.46c.62.31,1,.06,1.32-.69a4.85,4.85,0,0,1-1-.54.56.56,0,0,1,.12-1,1.48,1.48,0,0,1,1.68,0,8.53,8.53,0,0,0,1.19.67c-.21.69-.85.78-1.35,1,0,1,0,1,1,.76.21.22.1.82.65.73.32,0,.63-.13,1-.21l-.29-.42h.68l-.11.69a3.6,3.6,0,0,0,2.88,2.16l-.05.73c1.12-.65.79-1.89,1.44-2.8l.66,1a3,3,0,0,0,.73-.33,1.2,1.2,0,0,1,1.62.06,7.55,7.55,0,0,0,1.29.68,1.23,1.23,0,0,0,.47,0l.33-.82,1.1.56.18-.13c-.45-.64-.08-1.28-.09-2l.86-.14,0-.48,4,.81v.11l-.79.15c.23.51.62.3.9.33a7.67,7.67,0,0,0,1.1-.06c-.1.23-.17.48-.21.48-.76-.09-.76.51-1,1.06.45,0,.81-.06,1-.51a2.93,2.93,0,0,1,.33-.48c.21-.31.29-.75.82-.75a3.27,3.27,0,0,1,2,.55.59.59,0,0,1,.1.49,2.75,2.75,0,0,1-.74.19.91.91,0,0,0,.93.52c-.22.48-.42.89-1.12.66a8.14,8.14,0,0,0,3.61,0,4.9,4.9,0,0,1,.94-.06c.13,0,.29.1.38,0,1-.6,2.19.15,3.26-.29.26-.1.73.22,1.07.42a6.58,6.58,0,0,1,.9.72c-.42.88.66,1.25.77,2.06a1.45,1.45,0,0,1,1.33-1.17,2.61,2.61,0,0,1,1.9.11c.13.08.35,0,.53,0s.64-.11.86,0a1.82,1.82,0,0,0,1.84-.1l.89,1.74a1.88,1.88,0,0,0,1.19-.48c.54-.53.54-.5.24-1.22a3.66,3.66,0,0,1-.16-.85c1.32.07,2.55.08,3.76.24a4.84,4.84,0,0,1,1.66.67,1.58,1.58,0,0,0,.86.25,2,2,0,0,1,1.73.64,3.07,3.07,0,0,0,1.63,1.32c.27.06.46.42.72.61a9.61,9.61,0,0,0,1.71,1.14,1.66,1.66,0,0,1,1.08,1.46,3.28,3.28,0,0,1,.72-.37,1.64,1.64,0,0,1,1.58.26c.56.51,1.13,1,1.73,1.52l-.57.83-1.53-.14.49.52c-.16.32-.8.62-.05,1.15a2.63,2.63,0,0,1-1.84-.17,5,5,0,0,0-1-.35.76.76,0,0,1-.66-.6c-.28-1-.66-1.11-1.57-.69-.49.23-.49.23-1.29-.23.1-.37.29-.79-.25-1.12-.17.37-.45.65-.05,1.1.22.23-.08.95-.45,1.15a1.62,1.62,0,0,1-1.92,0h-.93c.4.6.64,0,.93,0l-.44.86.58-.08c.35.63.73,1.25,1.07,1.9a.52.52,0,0,1-.42.8,5.7,5.7,0,0,1-.58-.06,4.41,4.41,0,0,0-1.63,0,12.81,12.81,0,0,0-4.33,2.44c-.36.36-.69.75-1.11,1.22-.16-.17-.37-.35-.54-.56-.73-.91-1.42-.91-2.14,0-.22.27-.48.51-.83.87l-.13-1.1-1.12.79-.82-.18c-.54.73-1.09,1.45-1.61,2.19-.31.45-.17.73.37.94.15.06.28.14.51.25-.14.27-.25.49-.38.7-.43.69-.39.91.24,1.47a.57.57,0,0,1,.18.38c0,.07-.18.17-.29.2-1.3.3-1.5.79-.71,2.06-.19.16-.38.43-.61.47-1.22.25-1.59.66-1.57,1.89a.81.81,0,0,1,0,.17,2,2,0,0,0-.57.2c-.18.14-.44.37-.44.56,0,1-.71,1.45-1.55,2-.21-1.15-.42-2.19-.61-3.24a19.67,19.67,0,0,0-.31-2,5.46,5.46,0,0,1,.25-2.81.46.46,0,0,1,.24-.3c.78-.31.68-1,.66-1.63a3.57,3.57,0,0,0,2.07-1.12c.55-.61,1.15-1.17,1.66-1.8a11.64,11.64,0,0,0,.85-1.41c.06,0,.24-.09.43-.14.37-.11.92-.08,1.07-.32a3,3,0,0,0,.38-1.47.84.84,0,0,1,.64-.87c-.24-.42-.56-.31-.87-.16s-.47.52-.46,1.42c-.95-.14-.95-.14-1.68.69-.28.32-.54.65-.82,1l-.58-.77.37-.8c-.38-.14-.74-.28-1.11-.39a2.77,2.77,0,0,0-2.53,1,1.84,1.84,0,0,1-1,1c-.66.31-.79.86-.87,1.54l.81-.07c0,.16.06.3,0,.34s-.34.3-.48.28c-.72-.14-1.25.34-1.88.48-.41.09-.87.24-1-.49l.87-.24-.49-.7a9.18,9.18,0,0,1-1.1.08,8.88,8.88,0,0,1-1.13-.17l-.29.89-2.09-.35-.32.24c-.09,0-.14,0-.15,0-.67-1.16-1.83-.21-2.68-.63a7.14,7.14,0,0,0-1.35.92c-.41.45-.63,1.07-1,1.57a7.67,7.67,0,0,1-.95.94,4.76,4.76,0,0,0-1.52,1.74c-.22.55-.87.93-1.33,1.39s-.83.83-1.4,1.4l1.49.19a3.64,3.64,0,0,1,.09.53,6.14,6.14,0,0,1,0,.62l.64-.4.09.85c.22-.17.41-.29.58-.45a1,1,0,0,1,1.69,0c.4.42.83.8,1.25,1.2l-.58.1a2.41,2.41,0,0,1-.29,2,2.65,2.65,0,0,0-.09,1.5A4.37,4.37,0,0,1,325,151a7.78,7.78,0,0,1-1,1.33c0,.05-.11.09-.13.14-.42,1.56-1.66,2.55-2.56,3.78a19.67,19.67,0,0,1-1.34,1.81c-.56.62-.84.63-1.44,0l-.54-.56s-.06,0-.16,0c-.55.49-1.1,1-1.71,1.51a1,1,0,0,0-.45,1.09.82.82,0,0,1-.34.87,7.92,7.92,0,0,1-1.07.84.8.8,0,0,0-.44,1l.7,1.2a7.66,7.66,0,0,0,.46.85,3.73,3.73,0,0,1,.49,2.26,1.15,1.15,0,0,1-.91,1.14,7.41,7.41,0,0,0-1.37.72c-.07,0-.18,0-.42,0a12.66,12.66,0,0,0,.33-4.16h-1.18l-.64-.83c.1-.17.2-.36.33-.54a.76.76,0,0,0-.23-1.2,1.35,1.35,0,0,0-1.49,0l-1.41,1.07c-.35-.93.31-1.59.67-2.32-.95-.54-1-.5-1.58.3a4.37,4.37,0,0,1-.74.75c-.14.13-.37.21-.45.37A1.21,1.21,0,0,1,305,163c-.39,1.06.62,1.53.83,2.42a7.27,7.27,0,0,1,1.78-.77,7.79,7.79,0,0,1,2,.34c-.32.3-.49.56-.72.64a4.65,4.65,0,0,0-2.38,2.05,1.33,1.33,0,0,0,.07,1.42c.37.69.8,1.35,1.2,2,.12.19.23.39.4.67l-1.05.17c.82.08,1.3.27,1.39,1l-.68.64,1.26.35c-.49.34-.11,1-.74,1.22-.09,0,0,.53,0,.69-.28.47-.51.88-.78,1.27a1.8,1.8,0,0,1-.54.56.75.75,0,0,0-.37,1c.11.29,0,.46-.21.74a12.64,12.64,0,0,1-2.25,2.14c-.1.09-.29.16-.3.25-.15,1.17-1.27.66-1.85,1.06-.06,0-.28-.13-.46-.23a2.37,2.37,0,0,1-1.57,1,4.49,4.49,0,0,0-1.64,1c-.14.11-.08.47-.11.73-.63,0-.76-.17-.8-1.33-.49-.29-.87-.12-1.34.17a8.82,8.82,0,0,0-1.85,1.86,1.33,1.33,0,0,0-.18,1.49,3.56,3.56,0,0,0,.68,1.07,8.21,8.21,0,0,1,2,2.75,5.59,5.59,0,0,1,.64,3.57,2.3,2.3,0,0,1-.83,1.18,2.8,2.8,0,0,1-2.21.82l.35.61c-.76,0-.46,1.06-1.24,1.15a1.06,1.06,0,0,1-.26-1.09.72.72,0,0,0-.5-.93c-.5-.18-.73-.6-1-1-.57-.77-1.18-1.51-1.81-2.23-.09-.11-.36-.07-.49-.09-.26,1.33-.54,2.61-.75,3.9a1.84,1.84,0,0,0,.19.91c.19.48.44.94.66,1.41.06.11.11.28.21.33.75.36,1,1.15,1.6,1.7a2.5,2.5,0,0,1,.87,2.2c-.14.86.37,1.49.66,2.27l-.77.43-.26-.1c-1.6-.84-2-2.38-2.33-4a9.69,9.69,0,0,0-.29-1.64,4.66,4.66,0,0,0-.88-1.4,1.77,1.77,0,0,1-.45-1.72c.22-.9.59-1.8.06-2.72.19-1.26-.51-2.33-.76-3.49-.18-.81-.26-1.81-1.12-2.27a7.67,7.67,0,0,1-1.21,1.1c-.22.14-.62,0-1.07-.07a5.47,5.47,0,0,1,.14-1,1.85,1.85,0,0,0-.13-1.76,7.07,7.07,0,0,1-.5-1.81l-.65.16a3.84,3.84,0,0,1-.72-1.9,1.43,1.43,0,0,0-1.08-1.37c-.48.25-.4.69-.27,1.06-.49.18-.87.33-1.27.45a1.19,1.19,0,0,1-.53,0c-.73-.15-1.28.14-1.34.88a1.2,1.2,0,0,1-.9,1.16,2.61,2.61,0,0,0-1.42,1.25,3.17,3.17,0,0,1-1.63,1.34c-.2.07-.49.21-.54.37-.23.81-.9,1.06-1.55,1.33a.65.65,0,0,0-.44.69c0,1,.05,1.9.05,2.84a1.66,1.66,0,0,1-.15.77,2.06,2.06,0,0,0-.23,1.91c-.37.54-.64,1-1,1.37s-.65.76-1.12,1.3c-.33-.9-.89-1.38-1-2.24a9.77,9.77,0,0,0-1-2.24c-.23-.53-.42-1.08-.6-1.64s-.43-1.38-.6-2.08c-.3-1.31-.56-2.63-.84-3.94a6.8,6.8,0,0,1-.15-.76c0-.25-.14-.56,0-.75.44-.85,0-1.61-.24-2.43a3.78,3.78,0,0,1-.32,1.21,4.22,4.22,0,0,1-1.09.73L261,183.48l1.25-.65v-.18l-.7-.12c-.43-.08-.87-.14-.89-.73a.57.57,0,0,0-.18-.33,17.44,17.44,0,0,1-1.37-1.19,4.82,4.82,0,0,1-.56-1c-.87.13-1.71.24-2.55.4a15.72,15.72,0,0,1-4.64-.3.94.94,0,0,1-.8-.78,1.34,1.34,0,0,0-.8-1.12c-.22.12-.48.24-.74.39a2.05,2.05,0,0,1-2.86-.56,10.44,10.44,0,0,1-1.74-3,2.78,2.78,0,0,0-.22-.42c-.36-.09-.7-.19-1-.25a1,1,0,0,0-.93.34c-.32.32-.13.59,0,.89a10.46,10.46,0,0,0,1.67,2.87,1.49,1.49,0,0,1,.22.72c0,.25.06.51.1,1l.93-.85v1.55c.37.85,1.07.08,1.56.35.71.39,1.12-.19,1.53-.56a14.66,14.66,0,0,0,1.26-1.43,2.05,2.05,0,0,1,.08.42,2,2,0,0,0,1.29,2,3.9,3.9,0,0,1,2,2c-.37.72-.73,1.53-1.18,2.29a2.4,2.4,0,0,0-.54,1.67c-.49.18-1.07.31-1.25.94-.75.15-1.13.87-1.79,1.16-.38.17-.8.28-1.19.45a1.19,1.19,0,0,0-.81.77,1.68,1.68,0,0,1-.86.88c-1,.49-2,1.1-3.06,1.54a4.87,4.87,0,0,1-1.92.65.21.21,0,0,0-.17.08c-.51.75-1.28.5-2,.51-.18-1.19-.73-2.32-.58-3.55a2.35,2.35,0,0,0-.59-1.8,4,4,0,0,1-.71-1.36,2.42,2.42,0,0,0-1.23-1.57,1.8,1.8,0,0,1-.66-1.13,4.61,4.61,0,0,1-.27-2.06,1.64,1.64,0,0,0-.19-1.15,15.44,15.44,0,0,1-1.56-2.63c-.29-.68-.79-1.26-1.11-1.93-.21-.42-.72-.77-.86-.63-.47.45-.81,0-1.2,0a1.27,1.27,0,0,0-.69-1.27,1.73,1.73,0,0,0,.71,1.25,9.07,9.07,0,0,0,1.11,2.89,3.89,3.89,0,0,1,.82,2.13,1.89,1.89,0,0,0,.53,1.23,3.46,3.46,0,0,1,1,3.22,1.32,1.32,0,0,0,.45,1.33,3.06,3.06,0,0,1,1.35,2.67,1.54,1.54,0,0,0,.39,1.06,11.79,11.79,0,0,1,2.46,2.67C237.46,193.57,237.84,193.71,238.13,193.91Zm37.53-74.65.64.42c-.08-.55-.39-.45-.66-.41-.1-.43-.1-.43-.58-.09Zm16.66-10.88a1.85,1.85,0,0,1-1.65.29l-.16.68.59.23.47-.38a4.48,4.48,0,0,0,.48-.33,2.48,2.48,0,0,0,.27-.48l.74.06-.3-.4Zm-22.38,44.2c-.48,0-.95,0-1.42,0a3.28,3.28,0,0,0-2.36.32c-.53.4-1,.86-1.55,1.31l.57.78a4.39,4.39,0,0,1,1.86-1.72,1.83,1.83,0,0,1,1.59-.39,2.7,2.7,0,0,0,1,0c.12,0,.22-.19.33-.29.65.16.65.16.82-.54Zm-37.32,2.63c0-.08,0-.24,0-.24.49-.1.65-.47.8-.86l-.34-.37,1.27-.93a2.14,2.14,0,0,0-1,.12c-1.17.34-2.17,1.2-3.55,1,.34.41.6.73.88,1a.59.59,0,0,0,.36.11l1.64.1-3.23,1.16a1.08,1.08,0,0,0-.89-1.33l1.05-.61a1.34,1.34,0,0,0-.9-.26c-.56.06-.81-.09-.9-.65-1.21,0-1.61.95-2.06,1.79-.16.3-.17.65-.46.92s-.23.6-.34.9a5.52,5.52,0,0,1-.28.71c-.2.37-.42.73-.68,1.17l1.23,1.44a6.35,6.35,0,0,0-.82.24c-.26.11-.49.27-.74.4.64-.29,1.82.54,1.86-.84a2.29,2.29,0,0,1,.65,0,2,2,0,0,0,1.82-.48,3,3,0,0,1,3.37-.1c.66.34,1.39.32,2,.71.23.14.63,0,1,0a3.43,3.43,0,0,1,.64,0,1.61,1.61,0,0,0,1.41-.69,1.08,1.08,0,0,0-.24-1.35,2.4,2.4,0,0,0-.62-.48A12.64,12.64,0,0,1,232.62,155.21Zm15.13.37c.07-.34.22-.61.15-.76a3.93,3.93,0,0,0-.87-1.27,15.83,15.83,0,0,0-1.91-1.19c-.61.31-1,.51-1.46.74a3,3,0,0,0-.89.57c-.21.24-.31.34-.63.19a.6.6,0,0,0-.55.21c-.25.66-.43,1.34-.64,2.07l.69.28c-.15,1.89,1.21,3.12,2.43,4.56-.75.25-.59,1-.89,1.51a2.2,2.2,0,0,0,.18,2.4c1-.18,1.46.93,2.25,1l1.82-.4a2,2,0,0,0,0-.51c-.12-.58-.32-1.14.13-1.69.06-.08,0-.32-.09-.45-.19-.36-.43-.71-.67-1.1h-.54l.36-1.26c1,.53,1,.53,1.53-.25-.2-.25-.42-.49-.59-.75-.35-.53-.47-.56-1-.14l-.33.27-.18-.09.22-1.26c-1-.19-1.28-1.28-2.14-1.95l1-.08-.27-.54,1.22-.68Zm4.69,1.75c.17,0,.4-.14.45-.09.32.38.61.21.83-.05.36-.43.67-.92,1-1.39-.58-.32-.83-.7-.74-1.21s.23-.83.36-1.3c-1,0-1.46.76-2.06,1.27l-.31-.18a2.64,2.64,0,0,0-.53,2.52s.08.09.12.14l.73-.13Zm-23.08,50.82c-.26,0-.52.07-.79.08-.69,0-.84.15-.87.87a10.79,10.79,0,0,1,0,1.5,1.28,1.28,0,0,0,.34,1.18c.45-.38.91-.68,1.37-.15l.57-.5c-.54-.75.25-1.35.24-1.87ZM292.29,147a1,1,0,0,0,1.43,0,7.79,7.79,0,0,0,.71-.8c.22-.26.36-.55.79-.65a3.58,3.58,0,0,0,1.13-.73c.5-.39.38-1.22,1-1.52.1,0,.13-.22.19-.34a.29.29,0,0,0,0-.09v-2c-.19.37-.28.53-.37.7a7.33,7.33,0,0,1-2.11,2.91,4,4,0,0,0-1,1A3.23,3.23,0,0,1,292.29,147Zm-63.46-13.78c-1-1.84-1.58-2.08-2.51-1.27l1.13,2ZM225.75,215a4.8,4.8,0,0,0-.4-2.89,3,3,0,0,0-.14,1.11,4.54,4.54,0,0,1,.13,1.14,1.72,1.72,0,0,0,.5,1.61,4.05,4.05,0,0,1,1,1.9h.65s0-.06,0-.07c-.31-.45-.83-.87-.84-1.31C226.67,215.78,226.2,215.45,225.75,215Zm4.07,4.1-.18.12c.2,1.52-.27,3.12.6,4.77,0-1.26-.08-2.31-.12-3.36a5.17,5.17,0,0,0,0-.88A2.53,2.53,0,0,0,229.82,219.14Zm.87-88.89c.2.25.5.47.47.61s-.33.42-.62.76l1.35,1.07a3.8,3.8,0,0,0,0-.95,11.83,11.83,0,0,0-.6-1.41Zm8.59,33.82c.18.48.36,1,.55,1.42s.44.37.76,0C240.23,165,240.06,164.33,239.28,164.07Zm-27.9-29.14-1.09,1.48c.78,0,1.23-.21,1.42-.73C211.77,135.51,211.52,135.23,211.38,134.93Zm21.26,1.28c.42.24.73.55,1.06.57s.5-.35.45-.68C233.65,135.56,233.24,136,232.64,136.21Zm37,21.77c-1,0-1,0-1.5.38C268.66,158.78,269,158.46,269.6,158Zm-37.9,45.49c-.34.66-.45,1.1.24,1.52Zm-.79-74.34c-.17-.39-.36-.61-.79-.56C230.24,128.93,230.31,129.27,230.91,129.13Zm-6.75,6.67-.24,0c-.11.6-.11.6.45,1ZM317.83,156h.25c0-.31.32-.65-.25-1Zm-105,36.69-1.18-.25C212,192.72,212.12,192.75,212.87,192.65Zm12,18.4c.5-.28.51-.51.22-.78,0,0-.12,0-.22,0Zm12.91-47.3c-.53-.22-.53-.22-.9.12Zm-33-31.25,0,.16.42.09a.48.48,0,0,0,0-.16Zm20.39,76.77.15.08.29-.5-.17-.09Zm7.9-13.65c-.33-.2-.42-.29-.46-.27a1.26,1.26,0,0,0-.27.2c.09.07.16.19.26.21A1.64,1.64,0,0,0,233.06,195.62Z" transform="translate(0.04 -72.09)" fill="#25519a"/><path d="M81.21,118.08c1.19.08,2-.24,1.81-1.81.37-.21.61.07.83.28,1,.87,1.91,1.76,3,2.74l.45-1.6.42,1.36c1.08-1.12,2-.54,3.07,0s2.11.86,3.17,1.27a.59.59,0,0,0,.37,0c1.06-.31,1.28-.22,1.76.78-.43.08-.86.18-.85.74.73.52,2.28.38,3.87-.37.17.53,1.08.35,1.06,1.12.6.09.34.81.76,1,.37-.31.37-.31,0-1.57l1.6-1.15-.06-.16-1.88.64.5-1.19c.48-.06,1-.16,1.51-.19.91-.06,1,0,1.23.88,0,.09.07.18.13.32l.69-.17c0,.14.1.28.16.43s.06,0,.08,0c.83-.35,1.34.55,2.09.53,0,0,.06,0,.09,0a8.7,8.7,0,0,1,1.3-.24,12,12,0,0,1,1.33.14c.11,0,.23-.11.33-.16,0-.32,0-.61.09-.9,0,0,.08-.09.17-.18l1.41.71v1.2l1.08.78.08-.12-.41-.83c.42-.93,1.29-1.37,2.29-2l-.52-.07-.32,0v-.94c.77-.12.77-.12.9-.68a2.66,2.66,0,0,0-.35,0l-.43.13-.62-1-.79.7a1.16,1.16,0,0,1-.12-.31c0-.09.08-.26.06-.27-.94-.49-.13-1.25-.28-1.86a.44.44,0,0,1,.13-.35c.15-.16.51-.37.49-.41-.17-.35.11-.44.25-.65a1.12,1.12,0,0,0,.13-.75,8.32,8.32,0,0,0-.31-1.38,1.59,1.59,0,0,1,.11-1.61c.46-.15.88-.3,1.3-.41a1.31,1.31,0,0,1,.59,0c.86.19,1.71.4,2.56.6-.28,1.34-.58,1.64-1.84,1.84l-1.45.24s0,0-.13.12c.49.52-.15.88-.22,1.37.76,1.14,2.24,1.3,3.23,2.38l-1,.18.34.44-.74.68a3.8,3.8,0,0,0,.88.54,1.16,1.16,0,0,1,.92,1,10.27,10.27,0,0,0,.43,1.23c.3-.43.62-.69.6-1.21a.81.81,0,0,1,.84-.89c.6.64.6.65.28,1.33a6.85,6.85,0,0,0-.34.8.85.85,0,0,0,0,.55,7.1,7.1,0,0,0,.92,1.13c.25.25.83,0,1-.44.29-.65.55-1.32.86-2a2.85,2.85,0,0,0,.28-1.63c0-.2-.06-.39-.12-.73a11.64,11.64,0,0,1,2,.24c.27.07.44.52.72.88h.6c0,.08.08.12.07.13-.23.4-.14.91-.3,1.28-.27.62-.34,1,.24,1.36.32.19.56.36.53.73s-.39.52-.75.67c-.59.25-1.14.61-1.84,1l-.88-.49.45.75c-.36.41-.68.33-1.07,0a3.2,3.2,0,0,0-1-.31,1.33,1.33,0,0,1-.69,1.75c-.38-1.09-1.33-.6-2.06-.79v.48l2.08.28a4.41,4.41,0,0,0-.29.71c-.14.57-.56,1-1,.78a1.54,1.54,0,0,0-1.35.2c.1.47,0,.89-.59,1,.38.78.25,1.12-.46,1.18s-1,.6-1.38.95a6.8,6.8,0,0,0-.61.7,5.89,5.89,0,0,0-1.35,2.23,2.31,2.31,0,0,0,.25,1.71H115l1,2.39a3,3,0,0,1,.58-.1,2.23,2.23,0,0,1,.86.08c.55.21,1.06.5,1.6.74a2.12,2.12,0,0,1,1,.86,3,3,0,0,0,1.27.79,5.87,5.87,0,0,0,2.6.74,3.18,3.18,0,0,1,1,.31,9.11,9.11,0,0,1,.08,1.7,3.49,3.49,0,0,0,1.28,3,.88.88,0,0,0,1.5-.16,2.91,2.91,0,0,0,.19-1.11,6.67,6.67,0,0,0-.07-.89,1.65,1.65,0,0,0-.3-1.1.71.71,0,0,1,.15-1.12,7.19,7.19,0,0,0,2.29-2.21c-.41-.27-.24-.63-.16-1.06s-.23-.71-.4-1.05a6,6,0,0,0-.64-1.1,7.14,7.14,0,0,0-1-.83l1.3-1.5c-.16-.57-.32-1.06-.44-1.56a.62.62,0,0,1,.09-.46c.37-.44.47-.85-.06-1.22a1,1,0,0,1,1.14-.35,9,9,0,0,0,1.47.14,2.48,2.48,0,0,0,.92-.19,1,1,0,0,1,1.32.18c.42.41.79.87,1.13,1.27l1.09.18c-.09.76.52.3.83.47a3.41,3.41,0,0,0-.36,2.17.64.64,0,0,0,.36.5,6.78,6.78,0,0,1,2,1.23c1.29-.66,1.42-2.14,2.21-3.21a8.14,8.14,0,0,0,.45,1.63,7.27,7.27,0,0,0,1,1.19l-.35.46a1.28,1.28,0,0,1,.64.44c.45.62.41,1.51,1.36,1.92l-.94.45a3.15,3.15,0,0,0,1,1.2c.63.39,1,1.25,1.89,1.17.16.37.33.63.81.34.14-.08.37.44.3.82l1.62,1a4.1,4.1,0,0,1,0,.42c0,.93-.32,1.42-1.22,1.6a1.91,1.91,0,0,0-1.63,1.18,2.45,2.45,0,0,1-2.49.95,9.72,9.72,0,0,0-1.62-.07c-.71,0-1.42,0-2.13.08-.33,0-.83.12-1,.34-.59,1.07-1.79,1.49-2.46,2.5,0,.34.27.38.54.17.67-.5,1.31-1.05,2-1.54a2.21,2.21,0,0,1,1.7-.34c.66.12.91.54.58,1.12a3.09,3.09,0,0,1-.73.84c-.13.09-.41,0-.66,0l.1.51,1-.3-.17,1,.34.61,0,0c-.36.34-.11.58.17.73a1.93,1.93,0,0,0,.65.1l0,0c0,.18,0,.44.06.51a4.55,4.55,0,0,0,.8.38l.68-.52c.05.36.23.73.12.88a3.27,3.27,0,0,1-1,.89c-.5.29-1.19.2-1.43,1-.12.41-.81.51-1.2.33-.73-.33-.8-.7-.2-1.24a3.48,3.48,0,0,1,.57-.52,3.58,3.58,0,0,1,.79-.23c.14,0,.31,0,.43,0s.15-.2.28-.39c-.25,0-.41,0-.56,0l-.57.09.19-1c-.64.94-1.14,1.65-2.18,1.38a2.14,2.14,0,0,1-.27.83,1.33,1.33,0,0,1-.76.3.81.81,0,0,0-.63.33c-.16.21-.58.22-1,.35l-.73,1.7.41.48c-.07.07-.14.19-.21.19a7.69,7.69,0,0,0-2.46.79c-.06,0,0,.17-.05.27l0,0c-.4.11-.49.33-.37.74.19.65-.32,1-.68,1.43-.13.15-.52.07-.8.09a2.06,2.06,0,0,1-.13,1.85l-.84-.34a1.9,1.9,0,0,1,.52-1.87c-.49-.07-.72,0-.84.54-.16.7-.48,1.38.09,2,.31.35-.42.4-.17.7s.47.38.56.62-.12.46-.19.7l.5.45-.8.17a4.26,4.26,0,0,1-1.82,2.31c-1.06.78-2.22,1.61-2.34,3.21a5.71,5.71,0,0,0,.28,1.77,22.5,22.5,0,0,0,.67,2.26,3,3,0,0,1-.36,2.56c-.31-.41-.58-.74-.81-1.08a4.28,4.28,0,0,1-.58-1,4.69,4.69,0,0,1-.13-1.08l-.35,0a5.07,5.07,0,0,0,0-1.35,5.48,5.48,0,0,0-.73-1.14s-.15-.06-.18,0c-.75.67-1.39.06-1.87-.33a1.38,1.38,0,0,0-1.23-.26,1.85,1.85,0,0,1-.74,0,1.29,1.29,0,0,0-1.44.29c.6.1.46.71.71,1.26l-1.2-.67c-.55.81-.55.8-1.33.24a2.12,2.12,0,0,0-2-.32c-.49.18-1,.22-1.33.84-.2.4-.8.6-1.23.89a1.54,1.54,0,0,0-.69,2.09,1.56,1.56,0,0,1-.14,1.79c-.29.43-.14,1.18-.15,1.8s.09,1.1.05,1.65a3.62,3.62,0,0,0,.75,2.16c.34.56.73,1.09,1.17,1.74.14,0,.55.08.73.3a1.16,1.16,0,0,0,1.67.13,1.28,1.28,0,0,1,1.33-.18,3.89,3.89,0,0,0,1.16-2.27,1,1,0,0,1,.78-.87,4.26,4.26,0,0,0,.88-.44.9.9,0,0,1,1.1.05c.34.3.21.64.08,1s-.16.77-.28,1.13c-.2.57.06,1.33-.69,1.68,0,0,0,.11,0,.17a4.25,4.25,0,0,1-.6,2.79,10.23,10.23,0,0,0,2.24-.19c1.22-.38,2,.3,2.72,1a1,1,0,0,1,0,.92,7.66,7.66,0,0,0-.41,3.1,3.56,3.56,0,0,0,.68,1.47,12.61,12.61,0,0,0,.81,1.14,2.19,2.19,0,0,0,2.14-.38.85.85,0,0,1,1.15.13c.52.52,1,1.11,1.48,1.71a8.45,8.45,0,0,1,.69-1.38,3,3,0,0,0,.56-1.3c0-.19.33-.37.54-.49.54-.3,1.11-.53,1.64-.83a3.64,3.64,0,0,0,.75-.61c.3-.3.54-.28.84.06l-.65.77.43.82c-.66.51-.55,1.07,0,1.62.66-.32.74-.5.34-1.19a.68.68,0,0,1,.06-1,.78.78,0,0,1,.28-.11l.77-.25-.41-.58.08-.09c.51.26,1,.51,1.53.78a.51.51,0,0,1,.22.19,4.93,4.93,0,0,1,.19.54h1.06c.23,0,.53,0,.66.12.55.56,1.12.36,1.72.15s1.13-.29,1.89-.49c-.24.47-.65.84,0,1,.34.1.69.17,1.12.27l-.24,1.11a2.14,2.14,0,0,1,2,.74c.52.55.54.54.18,1.25a.35.35,0,0,0,0,.33l.5-.53a2.64,2.64,0,0,1,.8.41,1.85,1.85,0,0,0,1.8.42,3.62,3.62,0,0,1,2.72,1.15,4.8,4.8,0,0,1,1.27,1.84,10.68,10.68,0,0,0,.34,1.23,6.11,6.11,0,0,0,.56.9c0,.15-.67.59.14.8l-.29,1.07c-.29.26-.82-.55-1,.11-.15.48-.85.86-.28,1.53l1.88-1.84a3.53,3.53,0,0,1,.88.49,2.83,2.83,0,0,1,.27.91,1.12,1.12,0,0,1,1.78,0c.06.07.18.08.27.12a2.26,2.26,0,0,1,1.64,2.15c.21-.16.37-.21.44-.32a.59.59,0,0,1,.86-.22,6.78,6.78,0,0,0,2.25.57,3,3,0,0,1,1.23.58c.48.34.87.78,1.32,1.17a.92.92,0,0,0,.46.29c1.25.06,1.64,1,1.93,1.94a3.9,3.9,0,0,1-.52,3.49,1.82,1.82,0,0,1-.6.63,3,3,0,0,0-1.31,1.66c-.21.45-.11,1.18-.95,1a7.87,7.87,0,0,0-.6,1.61,12,12,0,0,0,.13,1.67,14.17,14.17,0,0,1-.12,1.45c0,.35-.09.7-.13,1,0,0,0,.07,0,.1-.27.74-.49,1.5-.83,2.22s-.71,1.16-1,1.77a1.83,1.83,0,0,0-.22.91c0,.59-.41.88-.71,1.21s-.63.16-1,.21c-.59.08-1.26,0-1.48.78,0,.05-.18,0-.28.07a11.71,11.71,0,0,0-2.91,1.76,1.1,1.1,0,0,0-.45,1.11c.05.65.14,1.29.19,1.94a1.92,1.92,0,0,1-.53,1.42,15.54,15.54,0,0,0-1.16,1.92l-.51-.32c-.24.35-.46.66-.66,1-.33.52-.79,1-.73,1.66a1.24,1.24,0,0,1-.26.62c-.2.34-.42.66-.62,1a1.66,1.66,0,0,1-1.53.81,3.37,3.37,0,0,1-2.74-1.23,1.25,1.25,0,0,0,.32,1.27c.3.36.79.61.55,1.23,0,.08.14.32.27.37.62.28.53.66.22,1.11a.19.19,0,0,0,0,.09c-.45,1.52-1.68,1.89-3,2.05l-1.94.27c.49.46.16,1.08.21,1.66a1.22,1.22,0,0,1-.7,1.2.93.93,0,0,1-1.22-.33c-.07-.08-.22-.1-.32-.14-.55.61-.09,1.16.11,1.65.06.17.61.13,1,.2.09.35.2.65-.49.66-.29,0-.72.41-.84.72a18.14,18.14,0,0,0-.53,2.17c-.85-.07-1.22.69-1.74,1.19a.65.65,0,0,0,.15,1,13.68,13.68,0,0,0,1.23.83l.18,1c-.5.5-1,1-1.46,1.47a1.1,1.1,0,0,0-.18.68c0,.71-.29.86-1.09.42.11.4.31.7-.08,1.05s-.29,1,.05,1.46c.09.13.16.28.26.46l-1,.3c.21.2.31.37.42.38.47,0,.58.27.71.73a2.74,2.74,0,0,0,1.79,1.81c.26.1.54.16,1,.28-.79.42-1.71,0-2.1,1-.43-.64-.78-.07-1.17,0a4.9,4.9,0,0,1-.82.15c-.38,0-.22-.4-.33-.6a.66.66,0,0,0-.38-.26c-.4-.14-.8-.24-1.22-.36l.24-.46a1.71,1.71,0,0,0-.43-.21c-.87-.17-1-.36-1-1.23,0,0-.18-.06-.28-.09l.2-1.16,1-.65-1.25.28a8.42,8.42,0,0,0-.08,1,1.61,1.61,0,0,0,.18.52c-.11,0-.29.09-.33,0a5,5,0,0,1-.63-.83c-.5-.88-.48-.88.5-1.07a2.72,2.72,0,0,0,.51-.24c-.51-.59.1-1.61-.94-1.93l-.34.58-.16,0a23.27,23.27,0,0,1-.23-2.49c0-.31.34-.61.62-1.09l.5,1.15h.12a3.8,3.8,0,0,1,0-1.17c.14-.41.35-.77.1-1.19l-1.1-.13.18-1c.11,0,.21-.1.29-.07.36.09.72.21,1.18.35,0-.56,0-1,0-1.39a2.67,2.67,0,0,1,.15-1.07c.58-1.16.33-2.45.64-3.64,0,0-.09-.09-.19-.19a1.64,1.64,0,0,0-.44,1.43,2.37,2.37,0,0,1-.17.83c0,.08-.27.08-.61.17.45-.75-.15-1.55.57-2.11.05,0,0-.23,0-.35a3.66,3.66,0,0,1,.29-2,2.47,2.47,0,0,0,.13-.93c0-.58-.24-1.16-.23-1.73a3.4,3.4,0,0,1,.4-1.24,3.57,3.57,0,0,0,.49-1.94,3.89,3.89,0,0,1,.46-1.59,5.26,5.26,0,0,0,.43-3.51c-.07-.22.1-.5.13-.76.05-.41.23-.82,0-1.25a1,1,0,0,1,0-.64c.17-1,.44-2.06.54-3.09s.08-2.28.15-3.41c0-.62.19-1.23.29-1.84a8.77,8.77,0,0,0,.08-3.5,2.74,2.74,0,0,0-1.39-1.91,11,11,0,0,1-2.83-1.78,2.76,2.76,0,0,1-1.05-2.08,1.67,1.67,0,0,0-.25-.84,15.6,15.6,0,0,1-1.31-3.57,3,3,0,0,0-.46-1.07c-.81-1-1.68-2-2.59-3.09a3.84,3.84,0,0,0-.15-.88,1.29,1.29,0,0,1,.35-1.52c.21-.2.39-.42.62-.68-.35-.35-.73-.62-.64-1.17s-.1-.92.22-1.37a3.61,3.61,0,0,0,.32-1.07c.1-.35.19-.71.34-1.23a2,2,0,0,0,.91-1.45c0-.19.25-.37.41-.53s.6-.54.91-.81l-.22-.09a5.75,5.75,0,0,1,0-.83c.1-1,.22-1.93.33-2.84-1-.66-1-.66-.83-1.41l-1-1-.93.78c.19.31.54.72-.21.93-.64-.36-1.13-1.18-2.08-1-.12-.33-.82-.13-.66-.75,0-.12-.18-.32-.32-.45s-.48-.42-.74-.63l-.39.35c-.25-.32-.7-.45-.43-1.05.11-.22-.06-.64-.22-.91-.32-.56-.74-1.08-1.08-1.63a2.21,2.21,0,0,1-.2-.63,4.61,4.61,0,0,1-2.41-.4,7.46,7.46,0,0,1-2.45-2,2.32,2.32,0,0,0-2.69-.6,3,3,0,0,1-2.32-.35,2.62,2.62,0,0,0-.72-.3,5.72,5.72,0,0,1-2-.85c-.42-.24-.87-.43-1.29-.65a2.3,2.3,0,0,1-.47-.35c-.41-.37-.81-.76-1.23-1.12a1.7,1.7,0,0,1-.69-2.15,2,2,0,0,0-.41-1.85,16,16,0,0,0-2.94-3.92c-.29-.26-.27-.28,0-.87a14.76,14.76,0,0,1-3.9-6.09,3.65,3.65,0,0,1-.67.06,4.15,4.15,0,0,1-.72-.25,3.61,3.61,0,0,0,.18.89c.51.94,1.11,1.82,1.57,2.78.69,1.45,1.34,2.94,1.9,4.45a4.61,4.61,0,0,0,.87,1.35.59.59,0,0,1-.11,1,7.53,7.53,0,0,0-.66-1,3.63,3.63,0,0,1-1.34-2.39c0-.47-.37-.74-.73-1-.56-.39-1.1-.79-1.66-1.2.21-.37.79-.26.71-.79s0-1.41-.63-1.78c-1.3-.72-1.51-2.09-2-3.26a2.77,2.77,0,0,0-.85-1.27,18.72,18.72,0,0,0-2-1.14c-.37-.64-.82-1.39-1.22-2.15a3.69,3.69,0,0,1-.16-.93l-.5-.39.26-.83-.52.11c-.06-.05-.13-.08-.15-.13-.19-.41-.37-.82-.54-1.24A6,6,0,0,1,87,161a10.45,10.45,0,0,1,.2-1.43,8.77,8.77,0,0,0-.2-1.12,8,8,0,0,1-.08-1.46c.1-1.47.28-2.93.32-4.4a4.11,4.11,0,0,0-.51-1.37l-.34-.86,1.66.18,0-.18a6.24,6.24,0,0,1-1.47-.41,6.21,6.21,0,0,1-1.13-1.05c-.24-.24-.85,0-.81-.6l-1.14-.13-.38-.83c1-.9.94-1.91-.22-2.48-.67-.33-.17-.76-.27-1.21l-.55.36c-.13-.21-.34-.4-.37-.62a4.59,4.59,0,0,0-.65-2c-.08-.13,0-.37,0-.56h-.51v1.09l-1.89-2.26c.43-.14.43-.14.9.13l.12-.44-1-1.89c-.16-.28-.1-.74-.6-.75-.06-.13-.09-.31-.19-.39a6.77,6.77,0,0,0-.65-.37l-.87.55,1.13.56.06-.54.54.16c.05.22.09.44.14.65.11.59.09.62-.62.78l.06-.47-.25,0,.22.4.13.52c.43.19.65-.76,1-.14s-.2.79-.57,1.26c-.11-.18-.19-.46-.31-.48-.58-.09-.76-.54-1-1s-.47-.61-.67-.94a4,4,0,0,0-1.55-1.54.76.76,0,0,1-.43-1,2.69,2.69,0,0,1-.77-.07,3.65,3.65,0,0,1-.73-.56c-.39-.11-.95-.28-1.52-.41s-.9-.36-1.43-.12a1.08,1.08,0,0,1-.84-.14c-.63-.35-1.37-.44-1.87-1.11s-1.28-.52-2.14-.39l.43.5c.29.37.09,1-.35.92-.86-.13-1.32.46-1.84.89a2.22,2.22,0,0,1-1.2.46c-.2-.39.46-.38.14-.86s.2-1.65.75-1.87a4.26,4.26,0,0,1,.9-.11c0-.59-.56-.43-1-.61-.54.56-1.12,1.13-1.65,1.74s-1.39.73-1.54,1.66l.57.3a5.28,5.28,0,0,1-1.54,1.58c-1.1.93-2.07,2-3.21,2.92a7.39,7.39,0,0,1-2,.86c-.08,0-.23-.16-.37-.27-.33.44-.44,1.1-1.28,1,.68-.69.95-1.83,2.32-1.32a1.29,1.29,0,0,1,.92-1.05,2.44,2.44,0,0,0,1.35-1.36c.33-.7.6-1.43.88-2.09l-1.73.28c-.36-.21-.8-.62-1.24-.64s-.83.41-1.28.66c-.32-.74-.09-1.62-.75-2.13-.31.13-.62.39-.91.36s-.5-.34-.71-.58-.44-.58-.75-1l1.1.11.05-.18c-.72-.12-1.48-.12-2-.95a9.89,9.89,0,0,0,1-1.21c.08-.13.55-.17.22-.64s.5-.84.9-.55a.89.89,0,0,0,1.23-.1,1.34,1.34,0,0,1,.54-.19c.8-.18.83-.22.72-1.07a3.93,3.93,0,0,1-.06-.48,2,2,0,0,1,.1-.35l-.2-.11c-.62-.27-1.11.45-1.82.16-.51-.21-1.2.09-1.81.1a1.26,1.26,0,0,1-1.35-.61,7.3,7.3,0,0,1-.24-.8l-.88-.17a1.26,1.26,0,0,1,1.21-.8c.3,0,.39-.13.6-.31a7.2,7.2,0,0,1,1.35-.74l.2.13c.31.26,0,.89.49,1a10.13,10.13,0,0,0,1.56.07,4,4,0,0,0,.56-.14l-.61-.43,1-.09v-.13a2.92,2.92,0,0,1-.94-.36c-.61-.54-.64-.6-1.26-.46a1.9,1.9,0,0,1-.34,0c-.41-1-1.58-1.1-2.31-1.86l.1-.92,2.55-.33a4.53,4.53,0,0,1,1.13-2.21,2.18,2.18,0,0,1,.64-.45,7.8,7.8,0,0,1,1.65-.55,4.1,4.1,0,0,0,2.11-.74.77.77,0,0,1,.65,0c.27.12.47.47.74.51s.6-.23.88.11a.34.34,0,0,0,.28,0c.89-.35,1.65.26,2.47.37.23,0,.48.21.67.15,1.39-.46,2.69.41,4.06.25a2.72,2.72,0,0,1,1.13.25c.76.27,1.5-.06,2.24,0a2,2,0,0,1,.56.12,3.29,3.29,0,0,0,2.08.49.8.8,0,0,1,.48.07c.89.47,1.78,1,2.67,1.45l.72.35c-.12-.59-.47-.34-.73-.35.18-.16.36-.46.54-.47a1.2,1.2,0,0,0,1.1-.86,1.47,1.47,0,0,0,.48.3c.22,0,.59.06.66-.06a1.63,1.63,0,0,1,1.7-.67l.36-.73,1,.16.05.2-.72.54c-.17.11-.35.3-.52.31-1.18,0-1.44.91-1.82,1.78.16,0,.23,0,.28,0a.25.25,0,0,0,.15-.11A1.59,1.59,0,0,1,80.8,119C81.32,118.93,81.38,118.52,81.21,118.08ZM123,153c-.14-.33-.26-.66-.4-1s-.25-.87-.44-.9c-.81-.12-1-.77-1.26-1.29a1.53,1.53,0,0,0-1.67.23c-.85.66-1.72,1.26-2.58,1.9a2.76,2.76,0,0,0-.33.45l.23.07c.1,0,.22,0,.3,0,.85.45,1.45,0,2.07-.52a3.49,3.49,0,0,1,.73-.34l.1.16-.5.54c.29.11.64.13.74.29.31.53.72.48,1.19.34s.68-.2,1.07-.31c.12.46.36.63.77.35l.07.64c-.22,0-.44.12-.6.06-.67-.26-1.23.12-1.79.31-.28.1-.41.61-.61.93.61.41.09.83-.06,1.17a3.78,3.78,0,0,0,0,2.71c.1.35.52.42.66.09.25-.58.71-1.11.43-1.85a2.32,2.32,0,0,1,.06-1c.12-.95.93-1.38,1.46-2,1.08.41,1.41,1.06.92,2.53l.72-.22.4,1c.5,0,.56-.34.53-.68a1.32,1.32,0,0,1,.66-1.33l.92.42.39-.55a2.17,2.17,0,0,0-.26-.69c-.3-.31-.63-.74-1-.79A10.63,10.63,0,0,1,123,153ZM87.37,123.8c.71.28,1.7-.18,2.25.9l-1-.11c.45.68-.52,1-.27,1.77l1,.33c.68-1.17.77-1.21,1.53-.91l-.53.38.05.1,1-.28-.09-.66,1.41.16.33-1.21-2.28-.5.83-.51A8.44,8.44,0,0,0,87.37,123.8Zm9.35,7.4a.88.88,0,0,0,1.27-.4,3.06,3.06,0,0,1,.73-.65c.47-.4,1-.79,1.44-1.18l-.1-.2c-.23,0-.51-.09-.69,0a4,4,0,0,0-1.09.82c-.59.71-1.33.34-2,.34-.09,0-.26-.22-.27-.36-.06-.64-.58-.66-1.2-1l.88,1.66a12.09,12.09,0,0,1-1.13.68,13,13,0,0,1-1.25.41l1.32.78C95.28,131.93,96.27,132.29,96.72,131.2Zm13.66,11a2.91,2.91,0,0,0-.73.49,1.13,1.13,0,0,0,.39,1.61,5,5,0,0,1,1.3,1.47,1.72,1.72,0,0,1,.25.72,7.6,7.6,0,0,1,.11.81c.83-.28.27-.94.42-1.28A11.61,11.61,0,0,1,110.38,142.22ZM123.78,159c.74.82.76.82,1.61.19a6.29,6.29,0,0,1,.79-.35c.55-.28,1.24-.41,1.43-1.36a7.27,7.27,0,0,0-1.18.32C125.53,158.19,124.66,158.61,123.78,159Zm5.26-2.86.45.5c-1.79-.13-1.79-.13-2.22.61a5.55,5.55,0,0,0,2.91-.33l.37-1ZM84,147.1v.22c.35.05.71.07,1.06.15s.6.1.69.27c.58,1,1.94,1.06,2.51,2.11a.62.62,0,0,0,.11-.51,3.07,3.07,0,0,0-.49-.59c-.16-.16-.25-.48-.6-.31,0,0-.17-.36-.32-.48a9.64,9.64,0,0,0-1-.64C85.33,147.87,84.69,146.74,84,147.1Zm17.72-12.8-1.31-.13L98.71,136c.3.27.47.31.7,0a4.07,4.07,0,0,1,2-1.41C101.48,134.55,101.56,134.43,101.7,134.3Zm5,4.47.55-2C106.28,137,106,137.73,106.66,138.77ZM134.9,272c-.19.43-.19.43.26,1.78.56-.22-.23-.6.14-.94S134.76,272.38,134.9,272ZM108.23,143.79l.54,1.57a1.19,1.19,0,0,0-.22-1.74Zm-17.71-15.1c.7,0,1.32.53,1.88-.13C91.81,128.6,91.21,127.84,90.52,128.69Zm18.69,17,1.08,2A1.89,1.89,0,0,0,109.21,145.65Zm10.66,3-.46-.87C118.92,148.51,118.92,148.51,119.87,148.67Zm24.86-4.59,1.28-.76,0-.12-1.42.51Zm-22.14,51.37-.91-.91-.16.15C121.67,195.05,121.72,195.51,122.59,195.45Zm10.25-48.39.16.19a.9.9,0,0,0,.69-.88ZM97.75,160c.16-.66,0-.85-.44-.81,0,0-.07.07-.11.11ZM133.61,273.3l.55-.34-.51-.34Zm-1.48-6.13-.19-.1-.25.56.08,0Zm4.58-122.85-.22-.13-.25.5.2.1Zm-1.24,81.15a4.7,4.7,0,0,0,.44.26s.11-.11.1-.13a.59.59,0,0,0-.2-.26S135.66,225.39,135.47,225.47Z" transform="translate(0.04 -72.09)" fill="#25519a"/><path d="M176.57,115.48c0,.59,0,.59-.5.81l.56.56-.95.32c.08.14.13.33.2.34a6.24,6.24,0,0,0,.86,0,3.94,3.94,0,0,1,1-.08c.59.1,1.18.29,1.75.43-.2.22-.42.43-.61.67a1.66,1.66,0,0,1-1.26.76,4.5,4.5,0,0,0-2,.86A5.57,5.57,0,0,1,173,121a4.84,4.84,0,0,0-1.17.32,1.88,1.88,0,0,1-1.85-.06,2.35,2.35,0,0,1,.17.45,1.61,1.61,0,0,1,0,.37l-1,.9c-.12.11-.22.28-.36.32a3,3,0,0,0-1.55,1.29c-.18.25-.25.61-.73.37-.1,0-.42.33-.7.55l-.44-.37a5.4,5.4,0,0,1-1.54.28c-.69-.06-.47,1.07-1.27.66.18.46.48.89.38,1-.36.5-.13,1.22-.57,1.58s-.11,1-.81.87c.12.44-.28.7-.37,1.08a6.81,6.81,0,0,1-.35,1.29,2.6,2.6,0,0,0-.29,1.52c.07.6-.18.76-.72.49-.38-.19-1-.2-.8-.86-.88.06-1.09-.1-1.26-.8l-1.52.73-1.33-2.42c-.18-.07-.6.47-.67-.18-.49,0-.27-.69-.82-.73-.32,0-.13-.73-.6-.93-.12,0-.07-.49-.11-.8a.94.94,0,0,0,.92-.91l-1.15.55a3,3,0,0,0-1.61-2.37l.42-1c-.13-.27-.46-.65-.37-.8.18-.32-.12-.57,0-.77s.55-.52.65-.83a1,1,0,0,1,.7-.62,4,4,0,0,1,1-.09l-.12-1.1.61.08c.06-.41-.27-.57-.39-.82s0-.63.1-1.07a6.35,6.35,0,0,1-1.32-.07,5.42,5.42,0,0,1-1.12-.63l-.12.16,1.41,1.33c-1.05,1-1.74,1.15-2.57.65l.27-.11a.33.33,0,0,0,.21-.16l-1-.21.41-1.5.94-.17-.82-.56c.65-.56.73-.55,3.41.46a2.71,2.71,0,0,1-.11-.81,2.22,2.22,0,0,1,.36-.68l-3-1c-.23.24-.37.53-.58.58a2.74,2.74,0,0,1-1-.15,7.59,7.59,0,0,0,.33-1.38c0-.31.07-.43.38-.55a.67.67,0,0,0,.23-.65,10.79,10.79,0,0,0-1-1.67c-.13-.18-.41-.26-.61-.37l.3-.64c-.69-.64-1.3-1.22-1.9-1.79-.05,0-.09-.12-.15-.13-1.17-.32-2.1-1.19-3.32-1.36-.21,0-.46.17-.7.27l-.31-.34-2.06.57c-.34-.31-.77-.68-1.34-.15-.07.06-.38-.14-.64-.25l-.21.73a2.08,2.08,0,0,1-1.8-.42,1.58,1.58,0,0,0-1.12-1c-.15,0-.25-.35-.41-.59a1.64,1.64,0,0,1,1.24.13c1.17-.93,2.61-.81,4.15-.82a1,1,0,0,0-1.12-.39,6.81,6.81,0,0,1-1,.13,4.94,4.94,0,0,1-1-.3,1.06,1.06,0,0,1-1.42.28,3.28,3.28,0,0,1-1.52-1.35,1,1,0,0,1,.9-.61c1.11-.14,2.2-.39,3.3-.56a7.93,7.93,0,0,1,1.38-.06,1.61,1.61,0,0,0,1.78-2h-2.8c0-.81.07-.93.71-1.15a24.2,24.2,0,0,1,2.61-.87,6.82,6.82,0,0,1,1.56,0l.42-1.21c.63-.27.9.13,1.14.42.11-.2.17-.45.32-.57a1.69,1.69,0,0,1,.72-.29c.55-.12,1.12-.15,1.65-.3s1,.27,1.46,0c.1-.06.28,0,.4-.07.75-.39,1.07-.27,1.25.51a4.19,4.19,0,0,1,.06.78,2,2,0,0,1,1.61-.33c-.41-.41-1.09-.44-1.31-1.27l2.4,1.12-.63.27,1.08.53.17-2.35a2.12,2.12,0,0,1,2.11,1.12A2.72,2.72,0,0,0,158,97.87c.33-.15.61-.76,1.24-.31a8.77,8.77,0,0,1-2.6-2.31c.71-.06,1.29-.14,1.86-.14a1.17,1.17,0,0,0,1.18-1.24l1.77-.32a3.78,3.78,0,0,0,.3.55c.22.29.48.42.83.14a10.58,10.58,0,0,1,1.35-.95,4.23,4.23,0,0,1,1.05-.37,5,5,0,0,1,1.89-.22c.64.09,1.32-.08,2,0,.83.13,1.67-.22,2.48.18a2.2,2.2,0,0,0,1.06,0,8.4,8.4,0,0,1,1-.1c.81.08,1.61.22,2.59.36l-.8.68.06.14a5.7,5.7,0,0,0,.81-.22c1-.42,1-.41,1.5.5l3.49.83c-.69.51-1.15.93-1.87.86a5,5,0,0,0-1.07.14,2.35,2.35,0,0,1-.59,0c-1.69-.31-3.41,0-5.11-.2a1.44,1.44,0,0,0-1.26.56l4.47-.17.19.67a.6.6,0,0,0,.18.07c.4,0,.79-.08,1.19-.12.12,0,.33,0,.36-.08.44-1,1.23-.36,1.89-.51-.05,1.4-1.24,1.33-2,1.76.87.1,1.71.29,2.45-.4a2.81,2.81,0,0,1,1-.49.85.85,0,0,1,.5,0,2.77,2.77,0,0,0,2.08-.33,3.28,3.28,0,0,1,1.54-.13c.79,0,1.58.12,2.37.18.36,0,.72.06.79.49-.82.37-1.6.71-2.37,1.08a.93.93,0,0,0-.48.41,1.63,1.63,0,0,1-2,1c-.67-.08-1.35-.12-2.16-.2l.3.83c.8-.36,1.56-.74,2.4-.14a1.33,1.33,0,0,1-1.3,1l-1.2,2.3c-.51.1-1-.49-1.45,0,.62.61,1.61.08,2.08.92l-.77,0-.06.6,1.4-.17.55,1.35-2.27-.44L180,107.2a1,1,0,0,0,.42,0c.68-.21.66-.22.92.42a1.63,1.63,0,0,1,.13,1.41l-1.07-.15.49,1.52a4.15,4.15,0,0,1,.85-.12c.15,0,.29.17.43.26a2.67,2.67,0,0,1-.43.32.37.37,0,0,1-.28-.06.72.72,0,0,0-1.1.13c-.15.16-.63,0-1,0,.12.51.45.26.75.27a3,3,0,0,1,.86.4,2.63,2.63,0,0,1-3,.73l1.7,1.09.1,1.58-1-.28c.67.86,1.66,1.48,1.17,2.67a2.43,2.43,0,0,1-2.56-1.39c-.15-.26-.55-.37-.84-.55l-2.5-.58c.15.23.24.48.31.47A13.39,13.39,0,0,0,176.57,115.48Zm1.45-2-1-.28-.25.29.61.76.59,0Zm-4.19-19.3a4.42,4.42,0,0,0-2.76.26Zm8.77,4.81v.23l1.82-.24A1.62,1.62,0,0,0,182.6,98.94ZM175.28,113l-.19.17.66.57.1-.11Zm-1,4v.1l.68,0v-.06Zm2.62-4.73c.35,0,.71.06.71-.47Z" transform="translate(0.04 -72.09)" fill="#25519a"/><path d="M301.11,238.43c-.39-.41.39-.31.27-.65-.22-.63,0-1.41-.76-1.89.94-.61.25-1.54.57-2.37.35.38.55.16.81-.06.56-.49.93-1.21,1.71-1.44.24-.06.47-.14.71-.22s.72-.11.9-.32a3,3,0,0,1,1.73-.83,2.84,2.84,0,0,0,1.72-2c.1-.5-.07-1.17.69-1.39l.6.75V226.7l.69.08a5.3,5.3,0,0,1,1.54-2.14c.71-.64.9-.6,1.48.16a5.5,5.5,0,0,1,.31.48l1.32.3-.3-.82.76-.93c.05-.07.15-.18.13-.21-.29-.41.06-.68.28-.82a2.27,2.27,0,0,1,1-.2,4.58,4.58,0,0,1,.83.08c.3-.76-.59-.65-.67-1.2a12.67,12.67,0,0,0,1.6.55c.78.16,1.58.22,2.37.34a.75.75,0,0,1,.45.23c.05.06-.07.26-.12.39a2,2,0,0,1-.2.5,2.87,2.87,0,0,1-.47.41c-.11.47-.24,1-.4,1.71a16.09,16.09,0,0,1,1.37.89,23.33,23.33,0,0,1,2.13,1.7c.44.4.38.46,1.18.3.2-.64.46-1.28.6-1.95a10,10,0,0,0,.07-1.45c.07-.94.13-1.88.23-2.82a12.23,12.23,0,0,1,.31-1.32c.88,1.32,1.69,2.43,1.31,4.08l.81-.28a1.75,1.75,0,0,1,.79,1.75.76.76,0,0,0,.13.57,3.91,3.91,0,0,1,.67,2.52.75.75,0,0,0,.52.74,3.94,3.94,0,0,1,1,.47c.3.27.84.43.72,1a.39.39,0,0,0,.09.34,1.32,1.32,0,0,1,.45,1.59l.56.26a.8.8,0,0,1,.57.83,1.26,1.26,0,0,0,.48,1,10.93,10.93,0,0,1,1.21,1.65,1.91,1.91,0,0,1,.14,1,3.16,3.16,0,0,0,.41,2.18,1.23,1.23,0,0,1,.08.75c-.09.76-.23,1.52-.31,2.29a3.6,3.6,0,0,1-1.18,2.55,2.63,2.63,0,0,0-.6,1.06c-.23.6-.4,1.24-.6,1.86s-.44,1.22-.63,1.83c0,.13.09.29.12.44.13.51-.15.84-.7.85h-1l-1.38,1.88c-.47-.7-1.37-.87-1.21-2l-1.45,1.65c-.32-.24-.59-.46-.87-.66s-.34-.3-.49-.29c-.78.08-1.2-.45-1.63-.93a1.51,1.51,0,0,1-.31-.68c-.14-.63-.25-1.26-.37-1.89l-.73.08c-.16-.54.07-1.2-.53-1.66-.27.4-.16,1.11-.86,1l.76-2.28-.15-.09-1.86,1.61a2.75,2.75,0,0,1-.54-.8c-.1-.41-.1-.84-.63-1,0,0,0-.22-.09-.33a4.9,4.9,0,0,0-.39-.71.4.4,0,0,0-.34-.11c-.88.32-1.31-.84-2.24-.58-1.35.37-2.78.47-4.12.87a5.53,5.53,0,0,0-1.91,1.26c-.34.29-.55.58-1.07.48a4.51,4.51,0,0,0-1.37,0c-.61.1-1.34-.07-1.73.64-.77-.13-1.13.79-2,.64s-1.31-.9-2.16-1.47l.77-.08a6.88,6.88,0,0,0-.12-3.43c-.14-.43-.12-.9-.22-1.35a4.69,4.69,0,0,0-.31-.89l-1.14-2.53Z" transform="translate(0.04 -72.09)" fill="#25519a"/><path d="M130.07,102.12l2.28.25c-.39.74-1.15.83-1.49,1.28-.53.73-1.22.38-1.89.48l-.17.68-1.28.23,1.34.95c-.3.29-.54.68-1.11.69a1.64,1.64,0,0,0-.68.3c-.21.12-.41.26-.71.45l-.22-1c-.42.06-.82.13-1.23.15s-1.07.28-1.6-.12a.61.61,0,0,0-.53.19c-.27.54-.66.5-1.15.37s-1-.2-1.54-.29c-.18.1-.57.37-.62.33-.36-.39-1.24.09-1.27-.76.48-.91,1.52-.64,2.28-1.09l-.8-.82a2.24,2.24,0,0,1,2.72.37c.41.42.88.14,1.28.32.09,0,.29-.19.6-.41a3.74,3.74,0,0,1-1.29-.35.62.62,0,0,1,0-1c-.55.15-1,.31-1.44.39s-.93.1-1.4.15c-.19-.72-.14-.83.46-1a3.22,3.22,0,0,0,.53-.25s0-.11.08-.2c-.64-.42-1.07.25-1.57.37s-.84.62-1.26.94c-.05,0-.13.1-.17.08-.73-.35-1.41.41-2.15.09-.19-.6-.4-1.21-.59-1.82.41.31.75.1,1.06-.25l-1.07.26-1,.08-.06-.18.36-.29a1.73,1.73,0,0,1-1.35-1.76c.1-.87.92-.59,1.62-.77-.74-.69-1.79,0-2.42-.81.53-.31,1,0,1.45,0,0-.54,0-.54-1.22-.84a14.42,14.42,0,0,1,1.47,0c.49,0,1,.22,1.45.27a1.25,1.25,0,0,1,1,.81c.39.82.52.87,1.37.88a7,7,0,0,1,2.18.07c.58.2.62.14.74.92.6-.06.64-.55.71-1.06.8,0,1.55-.08,2.3-.06a1.19,1.19,0,0,1,1,.82c.33.7.34.69,1.26.6-.94-.28-.94-.28-1-1.28l3.44-.3-.72-.39,1.51-.39-.25-.35c-1.85.25-3.66.53-5.48.72-.43,0-.81-.09-1.2.27a1.09,1.09,0,0,1-1,0,4.91,4.91,0,0,0-2-.25c-.68,0-1.36,0-2.12,0v-.45l-.43,0-.07-.16.89-.45c-.58,0-1,0-1.23-.56.45-.38,1-.24,1.63,0a7.27,7.27,0,0,1,.67-.55,4.34,4.34,0,0,1,.7-.3c1,.74,2,.35,2.95.28-.73-.29-1.61.28-2.4-.62l1.46-.19V95c1,.56,2.27.32,3.12,1.42l.54-1.11c.3.11.7.39.89.28.5-.26,1.11.18,1.55-.32.08-.09.29-.07.44-.1s.65,0,.84-.21a1.89,1.89,0,0,1,1.57-.4c.78.08,1.6-.23,2.21.27.41-.16.73-.29,1.07-.4.15,0,.4,0,.46-.11.5-.73,1.17-.36,1.8-.32s1,0,1.46,0,.75.05,1.2.07l-.27.66c.13,0,.26,0,.3-.06a1.38,1.38,0,0,1,1.68-.44c1.18.36,2.34.76,3.72,1.22a20.21,20.21,0,0,1-4.43,2l1.79-.44a2.38,2.38,0,0,1-2.07,1.07,3.93,3.93,0,0,0-2.16.84c-.43.35-1,.18-1.43.58a6,6,0,0,1-1.34.73c-.2.11-.49.17-.59.34-.3.5-.75.44-1.2.44s-.88,0-1.33,0c-.08,0-.17.08-.25.11.35.43,1.22,0,1.11.92-.19,0-.38,0-.48-.11-.72-.62-1.31-.19-1.92.19-.5-.15-.5-.15-.94.48Zm-5.25.2c-.66-.27-1.25,0-1.73-.36l.49-.4c-.69,0-.69,0-1.66.76Zm6.14-1.23c-.2-.55-.47-.13-.71-.11,0,0,0,.06-.05.11Zm7.08-6,0-.12-.83.2,0,.19Z" transform="translate(0.04 -72.09)" fill="#25519a"/><path d="M137.32,116.8l-.42.5.45.36.33-.46c.78.48.77.58-.19,1.3l1,.45s.06.1.12.22l-.77.1c.14.54.14.54-.27,1l2.1,1.47.95-.37v.5c.77-.25.76.33.85.84.41,0,.91-.21,1.09,0,.46.41.7,0,1.09-.18l.56.75-.43.82-.47-.3-.66,1.5-.39.16.11.78c-.13,0-.22.14-.3.12a1.9,1.9,0,0,1-1.23-.72,1.44,1.44,0,0,0-.48-.44,3,3,0,0,1-1.64-1.46c-.16.35-.38.6-.35.82.06.53-.45.1-.53.44.87.47,1.07,1.79,2.36,1.85.3,0,.53.62.33.87-.38.45-.27.86.05,1.43-.62-.44-1-.8-1.76-.69a7,7,0,0,1-2.14-.37c.93,1.2,2.19,1.46,3.19,2.26l-.07.62c-1.7-.79-3.52-.22-5.37-.63l.64-.55c-.85,0-.92,0-1.47-1a1.72,1.72,0,0,0-1-.78c-.09,0-.24-.12-.26-.1-.44.49-1.15.21-1.62.61a1.1,1.1,0,0,1-1.07.35c-.73-.19-.82-.28-.64-1.06.07-.31.12-.63.18-.91l4.29-.59-1.14-1.54.76-.86c.21-.26.51-.45.37-.9-.05-.14.24-.39.41-.65a7.39,7.39,0,0,0-.28-.83c-.13-.28-.25-.67-.48-.78-.51-.26-.29-.57-.16-1.1l-1.29.78c-.56-.57-.56-.57-.17-1.24a10.27,10.27,0,0,1-1-1.07c-.28-.37-.54-.28-.88-.06l-.29-.69c-.07,0-.14-.09-.18-.07a4.59,4.59,0,0,1-2,0,1.42,1.42,0,0,0-.29,0l-.57.09.53,1.21-1.19-.83.11.47-3.87-.48-.72-.76-.51.24a7.3,7.3,0,0,1-1-.75c-.07-.07.1-.35.18-.59-1,.32-1.34-.5-2-1.11.51-1,1-1.94,1.58-2.9.31-.52.94-.45,1.43-.52a14.29,14.29,0,0,1,2.27,0c.21,0,.42.22.7.38a1.72,1.72,0,0,1,2.13,0c.53-.38,1-.76,1.72-.42.11.06.31-.06.47-.09.88-.21,1-.13,1.38.75.07.18.13.36.22.6l-1.1.32c.76.28,1.4.54,2.06.73a1.79,1.79,0,0,0,.76,0c.49-.06.85,0,1.06.57.16.45.58.79,0,1.23a2.45,2.45,0,0,0,.19.51l.46-.55.3.56.8-.61c.08.48.76.35.68.93,0,0,.05.07.05.07.55-.41.8.29,1.24.33A5.79,5.79,0,0,1,137.32,116.8Zm-14.44-2.94v-.17a2,2,0,0,1-.35-.06.58.58,0,0,1-.21-1l1-1c-.87-.06-1.53.17-1.78.82a2.3,2.3,0,0,0,.1,2.33,3.45,3.45,0,0,1,.31.75l.5.07.15-.89-.75-.63ZM137.19,124c-.35-.9-1.4-.61-1.88-1.3-.52.79,0,1.33.17,1.85Zm-11.33-9.24c.69,0,.12-.54.4-.73s.45-.45.93-.22a2,2,0,0,1,.71.47l.3-.5.82.2c-.92-1.13-2.14-.62-3.16-.74Zm8.91,11.35v1.2l1-.12-.22-1Z" transform="translate(0.04 -72.09)" fill="#25519a"/><path d="M96.38,120.28c-.08-.65-.47-.92-1.14-.88a1.93,1.93,0,0,1-1.38-.66c-.34-.3-.28-.63-.1-1,1.23.11,2.38-.57,3.65-.29a.81.81,0,0,0,1-.63,5.35,5.35,0,0,0-.87-.17c-.47,0-.94,0-1.41,0-.9,0-1.79.08-2.69.08a2.45,2.45,0,0,1-.75-.25v-.21l1.93-.67,0-.17-2.11.39.11-.53H91.41a6.82,6.82,0,0,1,.39-.66,3.39,3.39,0,0,0,.87-1.21c.11-.36.8-.69,1.27-.76a2.73,2.73,0,0,0,1.59-.68c.24-.23.5-.4.76-.17a1,1,0,0,1,.25.69c0,1.08.16,1.26,1.29,1.53l.12-1.66a1.79,1.79,0,0,1,1.53,1.11l.79-.94a1.17,1.17,0,0,1,1.12.91c.16.39-.06.93-.11,1.4l.19.1.72-1c.36,0,.74,0,1.13,0a1,1,0,0,1,1,.75,12.76,12.76,0,0,0,1.05,2c.24.39.54.38.87,0,.43.86,1.18,1,2.09.82l.13,1.32-1.29-.78.26,1.27c-1.05.72-1.5.77-3.77-.22l.09-.62c-.09,0-.18-.07-.21,0A11.55,11.55,0,0,1,100.4,120a5.91,5.91,0,0,1-1.33.26c-.26,0-.54,0-.79.06A2.46,2.46,0,0,1,96.38,120.28Zm9.72-2-.17.18c.2.26.34.64,1,.37Z" transform="translate(0.04 -72.09)" fill="#25519a"/><path d="M328.06,217.5c-.37.49-.56,1-.85,1.09a8.25,8.25,0,0,1-2,0c-.12,0-.3-.19-.33-.32-.21-.79-.8-.65-1.36-.59a6.59,6.59,0,0,0-.88.2l-.11-.22,1-.79c0-.17-.1-.38-.15-.59-.1-.41-.17-.82-.29-1.22-.07-.24-.18-.64-.32-.67-.92-.15-1.45-1.13-2.44-1.1a.72.72,0,0,1-.7-.42c-.38-.59-.7-.62-1.27-.25l-.8-1.17,1.25-.29,0-.21c-.9.19-1.44-.47-2.24-.83.12-.21.18-.48.35-.61.78-.58,1.6-.31,2.5-.08a5.37,5.37,0,0,0,0,1.45,4.75,4.75,0,0,0,.77,1.19c.67,0,.75-.61,1.1-.92a11.08,11.08,0,0,1,1.14-.82,6.16,6.16,0,0,0,2.49.89c.25,0,.48.32.74.45.6.29,1.21.52,1.8.82s1.19.64,1.78,1a.17.17,0,0,1,.06.08,3.31,3.31,0,0,0,2.06,1.79c.37.14.35.56,0,.89a.79.79,0,0,0-.06,1.23c.46.51.9,1,1.36,1.56l1.2,1.34a4.16,4.16,0,0,1-2.57-.73c-.44-.47-1-.81-1.23-1.49a.69.69,0,0,0-.43-.37C329.09,217.65,328.48,217.57,328.06,217.5Z" transform="translate(0.04 -72.09)" fill="#25519a"/><path d="M304.52,203.82c.11.77.17,1.59.36,2.37a3.92,3.92,0,0,0,.7,1.05l-.85.42a6.32,6.32,0,0,1-.57,2.56c-.16.26-.08.73-.37,1.07a2.41,2.41,0,0,1-1.42,1.07,2.34,2.34,0,0,0-1.81-.27c-.32.07-.62.13-.89-.2a.72.72,0,0,0-.6-.14c-.51.12-.73-.11-.84-.56a8.29,8.29,0,0,0-.25-.85,1.26,1.26,0,0,0-.25-.52,2.64,2.64,0,0,1-.22-3.79l1.28.46c.09-.15.3-.33.32-.53a.94.94,0,0,1,1-1,1.08,1.08,0,0,0,1.05-.74,2.43,2.43,0,0,1,1.13-1.13c.37-.21.95-.3.65-1,0-.05.16-.19.23-.29l.85-1.22c.46.11.93.23,1.1.92.09.35.62.6.94.89-.19.45-.92.4-.8,1A4.3,4.3,0,0,1,304.52,203.82Z" transform="translate(0.04 -72.09)" fill="#25519a"/><path d="M243.09,222.33a4.9,4.9,0,0,1,.84,1.25c.49,1.74.46,1.81.07,2.65l-.37-.26c0,.05-.13.11-.12.14.49,1.21-.12,2.29-.41,3.4-.18.66-.4,1.31-.59,2-.25.91-.48,1.83-.74,2.74-.18.63-.42,1.25-.59,1.88a1.59,1.59,0,0,1-1.46,1.15,1.57,1.57,0,0,1-1.28-.73,12.21,12.21,0,0,1-1-2.84,3,3,0,0,1,.78-2.33,1.34,1.34,0,0,0,.27-1.53,4.09,4.09,0,0,1-.2-.87,2,2,0,0,1,1.24-2.51,3.66,3.66,0,0,1,.55-.21,1.64,1.64,0,0,0,1.15-.77c.2-.35.76-.49.73-1a.17.17,0,0,1,0-.1c.13-.36.75-.27.69-.84a4.34,4.34,0,0,1,.17-1Z" transform="translate(0.04 -72.09)" fill="#25519a"/><path d="M251,117.2l-1-.11a.87.87,0,0,1-.93.42,10.19,10.19,0,0,0-1.91,0c0-.48,0-1,.84-1.12-.59-.22-1.17-.11-1-.8l-1.42.32c-.48-1-.43-1.14.51-1.36l.35-1.7.81-.32c0-.43.12-.92-.55-1.15a10.71,10.71,0,0,0,2.4-2,1.82,1.82,0,0,1,1.26-.56,5.36,5.36,0,0,0,1.83-.62l2.07-.73c.29-.49.31-.53,1-.21s1.29,0,1.88-.21a19.53,19.53,0,0,0,2-.89c.52-.24.75-.19,1,.23s.18.66-.33.94a6.86,6.86,0,0,1-1.47.56c-1.13.29-2.29.51-3.43.78a2.5,2.5,0,0,0-.64.25,7.08,7.08,0,0,1-2.19,1,.74.74,0,0,0-.32.22,12.17,12.17,0,0,0-1.95,2.26c-.53,1-1.11,2.13-.44,3.35.28.53.61.76,1.61,1.17Z" transform="translate(0.04 -72.09)" fill="#25519a"/><path d="M194.69,136.18a3.23,3.23,0,0,1,.69-.12,3.54,3.54,0,0,1,.71.13,3.71,3.71,0,0,1-.27.68,9.59,9.59,0,0,1-.71.82l2.29-.12c-.29.63-.52,1.05-.68,1.49a5.49,5.49,0,0,0-.16,1.06,3.9,3.9,0,0,1,1.22,1.63c.12.36.53.63.82.94s.67.34.59.89c-.05.31.2.67.3,1a6.73,6.73,0,0,1,.88.09.44.44,0,0,1,.26.27c.14.86-.46,1.2-1.22,1.55l.7.4a1,1,0,0,1-1,.54,3.74,3.74,0,0,0-2,.2,3.41,3.41,0,0,1-.46.05c-.27,0-.54.09-.81.16s-.3.18-.42.15a1,1,0,0,0-1.19.48c-.07.09-.35,0-.61,0a9.57,9.57,0,0,1,1.13-1.51c.24-.22.72-.2,1.1-.22s.68,0,.58-.53a6.57,6.57,0,0,1-1.83.09c-.13,0-.33-.12-.35-.21a.54.54,0,0,1,.16-.39c.19-.19.46-.3.6-.51s0-.48-.28-.51l.24-1.07,1.18.25.27-1.07c-.21-.32-1.07-.21-.42-1l-1.58.14v-1.68l-.58-.09.28-.51C193.27,138.41,194.24,137.35,194.69,136.18Z" transform="translate(0.04 -72.09)" fill="#25519a"/><path d="M292.07,209.3l.93.36c.14.56.06,1.17.86,1.37.26.07.47.76.49,1.17a10.7,10.7,0,0,1-.21,1.86c-.3.1-.62.22-.95.31-.1,0-.28.06-.33,0-.64-.61-1.58-.85-1.9-1.88a18.94,18.94,0,0,0-1.53-3.18,13.86,13.86,0,0,0-1-1.25,2.83,2.83,0,0,1-.42-.76c-.21-.63-.17-1.41-1.05-1.6-.38-1.14-1.4-1.79-2.09-2.7a1.26,1.26,0,0,1-.31-1.33,3.48,3.48,0,0,1,.64.07c.15,0,.29.27.4.25,1.33-.25,1.65.93,2.33,1.6l.7.66c.1.09.27.15.29.25.2.89,1,1.24,1.53,1.86a3,3,0,0,0,.72.55A1.72,1.72,0,0,1,292.07,209.3Z" transform="translate(0.04 -72.09)" fill="#25519a"/><path d="M117.39,106.5l.83.48-.64.47a.22.22,0,0,0,.1,0,2.21,2.21,0,0,1,.65.15,4.3,4.3,0,0,0,1.84.45,18.63,18.63,0,0,0,2.85-.43,4.33,4.33,0,0,1,2.36.19,1.93,1.93,0,0,0,.64.15,1.74,1.74,0,0,1,1.31.73l-.91,1.24a4.19,4.19,0,0,1-1,.12c-1.31-.16-2.6.16-3.9.12a17.63,17.63,0,0,0-1.78,0c-.6,0-.6,0-1-.56-.59.92-1.55.48-2.5.71a7.86,7.86,0,0,1,0-1.69c.11-.47.13-.88-.27-1.14a2.72,2.72,0,0,0-1.31-.55,2.43,2.43,0,0,1-2.41-1c.09-.53.46-.57.88-.5a10.92,10.92,0,0,1,1.14.22,3.56,3.56,0,0,1,.61.25c.2.09.44.31.59.26a2.61,2.61,0,0,1,1.92.26Z" transform="translate(0.04 -72.09)" fill="#25519a"/><path d="M325.15,160.05a7.37,7.37,0,0,1,1,1.12,2,2,0,0,1-.31,2.6c-.1.12-.27.25-.26.36.09,1-.39,2-.17,3a2.07,2.07,0,0,1-.2.91c-.4.34-.61-.31-.87.09-.13.19-.26.4-.35.54a2.38,2.38,0,0,0-.69,0,1.43,1.43,0,0,1-1.33-.08,9.15,9.15,0,0,1-.77,1c-.15.16-.58.32-.66.24a1.65,1.65,0,0,1-.32-.75,1.22,1.22,0,0,1,.07-.42l-.8-.15.44.87c0,.65-.56.69-1,.75l-.38.91-.65-1a2.06,2.06,0,0,1,1.27-1.15c-.86-.13-1.65.61-2.53.09a3,3,0,0,0,1.72-1.12.86.86,0,0,1,.41-.24,5.41,5.41,0,0,1,1.12-.22,4.14,4.14,0,0,1,1,.17c.26-.7.54-1.41.81-2.15l.27.57a2.33,2.33,0,0,0,1.35-1c.24-.49.72-.85,1-1.33a2.62,2.62,0,0,0,.41-1.72A5.63,5.63,0,0,1,325.15,160.05Z" transform="translate(0.04 -72.09)" fill="#25519a"/><path d="M87.05,110.73c.87-.27,1.7-.55,2.55-.78a.84.84,0,0,1,.54.13,4.35,4.35,0,0,0,2.64.57,2.62,2.62,0,0,1,2.34,1c-.05.37-.37.33-.66.38a4.74,4.74,0,0,0-2.79,1.51,2.32,2.32,0,0,0-.46.73c-.39,1-.74,1.21-2,.89a4.7,4.7,0,0,1-.5.63.64.64,0,0,1-1-.11l-1-1.18A8.06,8.06,0,0,0,87.05,110.73Z" transform="translate(0.04 -72.09)" fill="#25519a"/><path d="M214.12,103.88l-1.84-.86c-.38.14-.82.82-1.46.66a5,5,0,0,1-.71-1.23c-.08-.39,0-.82-.25-1.19a.77.77,0,0,1,.33-.37,11.86,11.86,0,0,1,1.26-.2l-.14.92c.77-.83.77-.83,1.69.3a1.71,1.71,0,0,1,.83-1.56,4.23,4.23,0,0,1,1.1.49,3.46,3.46,0,0,1,1.07,1.35,1.36,1.36,0,0,0,1.22.94,2.27,2.27,0,0,1,.46.24c-.37.12-.6.19-.82.28-.43.15-.72.35-.64.93a1.26,1.26,0,0,1-.36,1c-.49.31-.67,1-1.38,1-.08,0-.18.21-.23.33-.21.47-.47.56-.71.16s-1-.59-1.46-.81-.47-.14-.57-.84l.84.05.29-.75-1.32.07-.11-.61c.52-.08,1-.18,1.5-.22s.95,0,1.42,0Z" transform="translate(0.04 -72.09)" fill="#25519a"/><path d="M177.88,126.73l1.12-.53,0-.53-1.34.28.77-1.21.78.46-.2-.61c.78-.1.88,0,1.06,1.47l1-1.25a.3.3,0,0,1,.13.07,1,1,0,0,1,.17.23l.94-.64.18.54c.64-.49,1.68.07,2.12-.89,1.11.49,1.11.49,1.26,1.28.12,0,.28.07.42.13s.29.15.45.22l.08.78c-1.19.71-2.14,1.94-3.77,1.57-.26.15.11.69-.44.7s-1.15.27-1.48-.19c-.44-.61-1-.46-1.53-.45-.24,0-.47,0-.7,0l0-.19.67-.42C179,126.93,179,126.93,177.88,126.73Z" transform="translate(0.04 -72.09)" fill="#25519a"/><path d="M354.15,255.86l.5,1h1a4.15,4.15,0,0,1-1.15,2.63c-.28.37-.29.36-.25.92l-1.42.61a4.82,4.82,0,0,1-1.32,2.57,1.13,1.13,0,0,1-1.26.25l-1.77-.67a4.29,4.29,0,0,1,2.49-2.77,3.49,3.49,0,0,0,1.86-1.95c.19-.61.73-1.07.72-1.79C353.55,256.38,353.92,256.14,354.15,255.86Z" transform="translate(0.04 -72.09)" fill="#25519a"/><path d="M96.07,110.1c.81-.8,1.8-.81,2.86-1.06a1.74,1.74,0,0,0-1.49-.35c-.4.1-.81.17-1.28.27L96,108c-.09.34-.13.46-.15.58-.14.61-.14.59-.8.5a5.38,5.38,0,0,1-1.4-.25l.53-.43-.41-.24.7-.3-.21-.65a3.13,3.13,0,0,1,2.63,0,13.28,13.28,0,0,0,1.78.77,6.75,6.75,0,0,0,1.82.1c-.34-.3,0-.88-.58-1.07-.07,0-.07-.3-.06-.45,0-.32,0-.64.08-1,.34-.18.55,0,.57.28,0,.59.56.68.89,1,.09.08.36,0,.61-.1a1,1,0,0,0,.71,1l.15-.83a.57.57,0,0,1,.62.51,4.15,4.15,0,0,1,.12,1.26c0,.14-.32.33-.52.37a4.36,4.36,0,0,1-1.79.23,4.1,4.1,0,0,0-1.86.17,1.59,1.59,0,0,0-1,.49,1.76,1.76,0,0,1-1.61.56A2.58,2.58,0,0,1,96.07,110.1Z" transform="translate(0.04 -72.09)" fill="#25519a"/><path d="M309.47,213.56c-.49-.18-.69.16-.91.66-.7-.65-.52-1.57-1-2.32-.13.19-.31.34-.33.5-.09.67-.13,1.34-.19,2.06l-.9.11a1.12,1.12,0,0,1,0-1.24.62.62,0,0,0-.08-.89c-.51-.33-.29-.75-.25-1.14a11.17,11.17,0,0,1,.24-1.15,7.5,7.5,0,0,0,.39-2.18c0-.64.94-1,1.6-.81a2.48,2.48,0,0,0,2.83-.4,1.52,1.52,0,0,1,.34-.19c0,1.09-.64,1.63-1.58,1.51-.77-.09-1.56-.12-2.3-.17-.36,1.17-.36,1.17.28,1.65l1.94-.12.06.9-1.76.42a6.77,6.77,0,0,1,1.62,2.83Z" transform="translate(0.04 -72.09)" fill="#25519a"/><path d="M111.37,112l-.87.31,1.13,1,.56-.2a2.26,2.26,0,0,1,.16.79,1.66,1.66,0,0,1-.48,1,15.76,15.76,0,0,1-2,1L108,114.09c-1.09.26-1.6-.13-1.64-1.34.73.12,1.35.86,2.21.35l.08-.59-.94-.37c.2-.88.29-.93,1-.8.54.1.86-.42,1.34-.52.17,0,.31-.21.49-.33.12.27.17.55.34.69S111.46,111.43,111.37,112Z" transform="translate(0.04 -72.09)" fill="#25519a"/><path d="M216.5,100.36c.57-.17.62-.71.81-1.15l2.83,1.26,1-.69.28.6c.89-.94,1.68.17,2.6,0-.17.8-.82,1.1-1.29,1.48-.25.2-.61.24-.81.59-.07.13-.43.17-.64.15-.81-.1-1.62-.24-2.43-.35-.45-.07-.91-.1-1.37-.14s-.34,0-.58-.46l1.36-.23v-.21a1.53,1.53,0,0,0-1.05.06.86.86,0,0,1-1.07-.22l.42-.73Z" transform="translate(0.04 -72.09)" fill="#25519a"/><path d="M151.44,151.14c-.17,0-.39-.1-.49,0a8.85,8.85,0,0,0-.85.79l-.19-1c-.89,0-1.7,0-2.51,0-.32,0-.64.12-1,.14a.55.55,0,0,1-.42-.13.51.51,0,0,1,.06-.44c.17-.24.58-.41.21-.8l.92-.71c0-.07-.17-.22-.15-.35.05-.42.16-.82.22-1.23a1.41,1.41,0,0,1,1.53-1.37c0,.83-.87,1.37-.82,2.25.83-.31.83-.31,1.13.49l1.86-.1c-.09.53-.25,1,.24,1.36l.76-.15c-.45.43,0,1-.58,1.29Z" transform="translate(0.04 -72.09)" fill="#25519a"/><path d="M354.41,248.86c1,.29,1.69.58,1.69,1.63a6.14,6.14,0,0,0,.35,1.39l.55-.41a1.78,1.78,0,0,1,.28.45c.25,1.09.58,1.28,1.61.92a2,2,0,0,1,.55,0c0,.21.08.45,0,.62-.23.47-.3,1.07-.95,1.23a.41.41,0,0,0-.21.3c0,.9-.81,1.38-1,2.17,0,.08-.15.13-.28.24l-.89-.35c.08-.52.6-1,.14-1.49a14,14,0,0,0-1.17-1c.16-.12.31-.22.44-.33a1.69,1.69,0,0,0,.55-1.6,4.51,4.51,0,0,0-.85-2.26A8.2,8.2,0,0,1,354.41,248.86Z" transform="translate(0.04 -72.09)" fill="#25519a"/><path d="M285.85,98.29c.56.45,1.14.88,1.66,1.37.15.14.12.47.15.64l1,.91.35-.33.51.64a1.94,1.94,0,0,1-.17.31,2.45,2.45,0,0,1-2.58.67c-.88-.18-1.76-.39-2.83-.64l2-1.34a5.64,5.64,0,0,1-1.36.16,6.59,6.59,0,0,1-1.39-.5,3.39,3.39,0,0,0,1.3-1C284.7,98.75,285.34,98.58,285.85,98.29Z" transform="translate(0.04 -72.09)" fill="#25519a"/><path d="M88.11,107.75l-.77-.91,3.35-2.23a2.42,2.42,0,0,1,2.16-.1c.66-.79.85-.88,1.24-.64.59.37.62.67.13,1.57l-.56-.07c.19.88-.72.83-1,1.29-.73-.14-.24-.62-.32-1.07-.55.66-1,1.21-1.48,1.79-.23.3-.39.3-.79.22A7,7,0,0,0,88.11,107.75Z" transform="translate(0.04 -72.09)" fill="#25519a"/><path d="M193.61,141.61l.29,1c-.26.23-.62.41-.75.69a1.48,1.48,0,0,0,0,1,1.08,1.08,0,0,1-.49,1.34,10,10,0,0,1-1.37.89,1.34,1.34,0,0,1-1.31-.14.38.38,0,0,1-.12-.62,7.51,7.51,0,0,0,.47-.68c.13-.23.22-.47.35-.74l-.81-.36c-.05-.53,1-.55.32-1.26a2.56,2.56,0,0,1,.68-.09c.44,0,.54-.3.71-.55s.14-.54.31-.62a1.64,1.64,0,0,1,.83,0A5,5,0,0,1,193.61,141.61Z" transform="translate(0.04 -72.09)" fill="#25519a"/><path d="M302.2,217.73c-.21,0-.47.1-.64,0-1.27-.61-2.75-.41-4-1a.82.82,0,0,0-.49,0c-.93.24-1.68-.41-2.52-.57-.29-.06-.45-.62-1-.31.23-.53.36-.85.52-1.21.57,0,1.15,0,1.73,0a6,6,0,0,1,.85.34c.5.14,1.07.43,1.49.29a2.33,2.33,0,0,1,1.67.07,2.27,2.27,0,0,0,.5.08l.22,1,1.15.13.62,1.22Z" transform="translate(0.04 -72.09)" fill="#25519a"/><path d="M327.42,144.57c.08-.47-.41-1,.22-1.28.06,0,.17.07.17.1,0,1,.49,1.85.34,2.85a12.11,12.11,0,0,0,0,2.33c0,.17.2.33.31.49a2.43,2.43,0,0,1,.49,1l-.27-.17c-.48-.35-.83-.29-.93.25-.2,1.1-.73,2.24.14,3.31.13.16.12.44.21.84l-.9-.78-.51.44c0-.23,0-.39,0-.55a41.41,41.41,0,0,0,.14-5.57c0-.56-.12-1.11-.16-1.66A1.5,1.5,0,0,1,327.42,144.57Z" transform="translate(0.04 -72.09)" fill="#25519a"/><path d="M106.89,107.85l.76.05-.46-1.46.23-.15c.63.28.76,1.11,1.42,1.4.16-.41-.12-.72-.41-1.09l.52-.2-.41-.45c.59-.28.59-.28,1,.62l.32-.76a.7.7,0,0,1,.23.07c1,.73.94,2,1.34,3,0,.12-.23.54-.38.55-.87,0-1.74,0-2.7,0l.3-1-2,.46.27-1Z" transform="translate(0.04 -72.09)" fill="#25519a"/><path d="M329.81,157.77c-.24.09-.46.25-.66.23a1.2,1.2,0,0,0-1.44,1c-.84.08-.84.08-1.4-.48l-1.06.18.57.66-.77.41-.42-1.21.62-.88.6.17c.09-.08.16-.11.17-.17a5.83,5.83,0,0,0,.21-.92c.06-.5.37-1-.05-1.5-.07-.08.05-.33.08-.5.16.07.38.1.48.23a6,6,0,0,1,.6.89c.28.45.47.92,1.2.74.26-.06.62.25,1,.42Z" transform="translate(0.04 -72.09)" fill="#25519a"/><path d="M307.69,193.13c-.16-.38-.56-.67-.39-1.16,0-.05,0-.17,0-.18-.76-.22-.45-1-.91-1.5.73-.16.66-.73.74-1.2s.13-1.22.19-1.85l1.37.23c0,.24-.11.61,0,.81.47.71.1,1.28-.27,1.77a2.09,2.09,0,0,0-.24,2.11l1.8.18.34,1.45-.14.08c-.19-.17-.45-.3-.55-.51-.25-.51-.82-.3-1.18-.57-.12-.08-.51.2-.77.31Z" transform="translate(0.04 -72.09)" fill="#25519a"/><path d="M123.27,183a1.14,1.14,0,0,1,1.1-1.39,14.22,14.22,0,0,1,2.5.21c.87.83,2.14,1,3.06,1.8a11.17,11.17,0,0,0,2.06,1.16c-.43.57-.46.57-2.84.61l.25-.63a4,4,0,0,1-.78-.51,4.43,4.43,0,0,1-.5-.8,2.15,2.15,0,0,1-1.51-.59,4.47,4.47,0,0,0-1.54-.81,1.33,1.33,0,0,0-.89.24A7.68,7.68,0,0,0,123.27,183Z" transform="translate(0.04 -72.09)" fill="#25519a"/><path d="M309.62,198.65l.35.39a2.25,2.25,0,0,0,1.74-1.23,2,2,0,0,1,.69,1.83c-.17.37-.39.73-.53,1.12s-.21.79-.32,1.18c-1.59-.36-1.71-.9-1.34-1.74-1-.29-1.29-.26-1.8.21C308.24,199.48,308.9,199.13,309.62,198.65Z" transform="translate(0.04 -72.09)" fill="#25519a"/><path d="M328.39,256c1.2,0,2.08,1.15,3.1.15.79,1-.2,1.91,0,2.91L331,259c-.15.23-.25.61-.45.67a.8.8,0,0,1-.88-.47c-.18-.34-.32-.69-.47-1s-.33-.71-.47-1.07S328.54,256.42,328.39,256Z" transform="translate(0.04 -72.09)" fill="#25519a"/><path d="M104.42,103.54c.27-1-.69-1-1-1.41.34-.75.84-.71,1.8.12l.26-.48.59.26a2.85,2.85,0,0,0,.5.14c.27.06.55.09.82.16.59.15,1,.67,1.68.71.27,0,.55.6.74,1,.06.13-.1.47-.25.57a.71.71,0,0,1-.61-.06,10.27,10.27,0,0,1-1-.74,2.74,2.74,0,0,0-3.09-.28A1.46,1.46,0,0,1,104.42,103.54Z" transform="translate(0.04 -72.09)" fill="#25519a"/><path d="M123.54,128.34c.08-.4.32-.77-.15-.81-.18,0-.45.31-.56.53s-.11.66-.26.93c-.24.45-.54.41-.86,0a1.07,1.07,0,0,0-.41-.26,3,3,0,0,0-.41-.17,1.53,1.53,0,0,1,.23-.48,3.89,3.89,0,0,1,.6-.43,3.57,3.57,0,0,1,.16-2.1l.31.07-.12.55c1.31-.14,1.88.76,2.47,1.75h.88l-.25.85Z" transform="translate(0.04 -72.09)" fill="#25519a"/><path d="M137.68,187c-.91-.26-1.51.32-2.24.17-.17,0-.41.24-.63.38-.58-.45-1.3-.22-2-.26-.5,0-.5,0-.9-.59l1.94.19-.4-1.32,1.33-.06a1.65,1.65,0,0,1,.59,0c.62.25,1.24.52,1.85.82C137.39,186.47,137.45,186.7,137.68,187Z" transform="translate(0.04 -72.09)" fill="#25519a"/><path d="M293.37,103.19l-1.21.43c-.16.06-.34.22-.45.17a3,3,0,0,0-2.38.44s-.12,0-.17-.07c.44-.87.88-1.76,1.35-2.62a.52.52,0,0,1,.5-.13,20.06,20.06,0,0,1,1.93,1.06C293.14,102.6,293.21,102.92,293.37,103.19Z" transform="translate(0.04 -72.09)" fill="#25519a"/><path d="M270.87,197.46c.45.77,1,1.51,1.34,2.31a1.19,1.19,0,0,1-.52,1.68c-.54.32-1,.19-1.13-.41a3.67,3.67,0,0,1-.1-2.13,6.21,6.21,0,0,0,.24-1.39Z" transform="translate(0.04 -72.09)" fill="#25519a"/><path d="M323.84,107.83a7.82,7.82,0,0,1,.7.45c.78.62.83,1,.25,1.87a2.13,2.13,0,0,1-.16.25c-.26.22-.51.6-.78.62-.47,0-.7-.41-.86-.81C322.59,109.2,322.78,108.67,323.84,107.83Z" transform="translate(0.04 -72.09)" fill="#25519a"/><path d="M109.44,119.76l1.24-1.55c1.11.19,2,.48,2,1.88-.37.15-.8.34-1.25.49-.14,0-.39.07-.45,0A2.71,2.71,0,0,0,109.44,119.76Z" transform="translate(0.04 -72.09)" fill="#25519a"/><path d="M96.91,104.35c1.07-.23,2-1.12,3.38-.52l-.81.61c0,.17.1.45,0,.64s-.33.27-.53.38a5,5,0,0,1-.54.2C97.47,106,96.88,105.49,96.91,104.35Z" transform="translate(0.04 -72.09)" fill="#25519a"/><path d="M221.12,105.64a3,3,0,0,1-2.36.4,4.1,4.1,0,0,0-.95.13l.13-1.32-.91-.69c.7-.51.7-.51,1.67-.15l-.13.91a1.46,1.46,0,0,1,1.54.38A3.71,3.71,0,0,0,221.12,105.64Z" transform="translate(0.04 -72.09)" fill="#25519a"/><path d="M315.41,170l1.26-.82.9,1.35-.83,2.2-.91-.39.3-1.16C315.31,171.21,316,170.28,315.41,170Z" transform="translate(0.04 -72.09)" fill="#25519a"/><path d="M113.42,104.13l-1.48.47c-.68-.18-.57-1.3-1.52-1.31l.12-1.15,2.08.91C113.25,103.33,113.25,103.33,113.42,104.13Z" transform="translate(0.04 -72.09)" fill="#25519a"/><path d="M237.4,99.71a3.5,3.5,0,0,1,2.42-.88,4.54,4.54,0,0,1,3.42.46l-1.82.09c-.1,0-.24,0-.29,0-.56.54-1.27.33-1.92.45A5.12,5.12,0,0,1,237.4,99.71Z" transform="translate(0.04 -72.09)" fill="#25519a"/><path d="M299,186.38c-.28.54-.26,1.22-.89,1.58a1,1,0,0,1-1.35-.24.63.63,0,0,1,.09-.94,3.57,3.57,0,0,1,1.63-.8C298.8,185.92,299,186,299,186.38Z" transform="translate(0.04 -72.09)" fill="#25519a"/><path d="M328.16,113.08,325,112.6c.7-.65,1.15-1.53,2.21-1.11A1.61,1.61,0,0,1,328.16,113.08Z" transform="translate(0.04 -72.09)" fill="#25519a"/><path d="M114.34,110.17l-2.09-.71c-.07-.7.47-1,.82-1.38s1.38.15,1.43.91A6.55,6.55,0,0,1,114.34,110.17Z" transform="translate(0.04 -72.09)" fill="#25519a"/><path d="M307.68,183a.9.9,0,0,1-.57-1.12,4.57,4.57,0,0,1,1.5-2.55c0,.36.15.59.08.76C308.31,181,308.56,182.21,307.68,183Z" transform="translate(0.04 -72.09)" fill="#25519a"/><path d="M334.69,109.1a1.9,1.9,0,0,1-2.31.6c-.67-.24-.76-.32-.72-1.16C332.69,108.59,333.77,108.38,334.69,109.1Z" transform="translate(0.04 -72.09)" fill="#25519a"/><path d="M206.48,160.84l.93-.66c.19.35.49.64.51.95a4.67,4.67,0,0,1-.26,1.52.61.61,0,0,1-.52.33.67.67,0,0,1-.4-.46C206.62,162,206.57,161.5,206.48,160.84Z" transform="translate(0.04 -72.09)" fill="#25519a"/><path d="M332.47,215.06l1.16-.47c.06,0,.14-.07.17-.05.73.48.94-.21,1.16-.6s.35-.57.83-.47l-.32-.81c.16.06.27.06.32.11.52.57.51.56,0,1.13-.34.37-.61.83-1,1.17A1.71,1.71,0,0,1,332.47,215.06Z" transform="translate(0.04 -72.09)" fill="#25519a"/><path d="M309,220.69c.53-.52,1.09-1,1.59-1.57a3.38,3.38,0,0,1,2.46-.86,10.32,10.32,0,0,1-2,1.59C310.37,220.17,309.77,220.75,309,220.69Z" transform="translate(0.04 -72.09)" fill="#25519a"/><path d="M245.54,99.32c-.14.18-.23.38-.33.39-1.16.12-2.18,1-3.47.59l-.2-.77a4.31,4.31,0,0,1,1,.06,1.41,1.41,0,0,0,1.66-.46.51.51,0,0,1,.4-.11A9.46,9.46,0,0,1,245.54,99.32Z" transform="translate(0.04 -72.09)" fill="#25519a"/><path d="M96.37,103.21a1.93,1.93,0,0,1,2.25-.31,3.67,3.67,0,0,1,.72-.49,1.71,1.71,0,0,1,.84-.07.7.7,0,0,1,.44.43c.06.28-.13.49-.45.51-.13,0-.26.06-.39.07-.57,0-1.18-.48-1.72.11C97.63,103,97.08,103.35,96.37,103.21Z" transform="translate(0.04 -72.09)" fill="#25519a"/><path d="M255.26,99.14c-.24.09-.38.16-.52.2a3.69,3.69,0,0,1-.46.08v.7a4.23,4.23,0,0,1-1.24-.21c-.31-.15-.16-.53,0-.79C253.6,98.13,254.33,98.1,255.26,99.14Z" transform="translate(0.04 -72.09)" fill="#25519a"/><path d="M106.92,107.82l-1.26.56-.1-.15.2-.39-.82-.89.34-.46.59-.15c.62-.28.69.42,1,.64.14.11,0,.57,0,.88Z" transform="translate(0.04 -72.09)" fill="#25519a"/><path d="M212.71,164.33l-.23,1.57a5.68,5.68,0,0,1-2.46-1.57Z" transform="translate(0.04 -72.09)" fill="#25519a"/><path d="M360.31,117.19l1.16-.9,1.45.41c.39.12.65.3.44.73h-3Z" transform="translate(0.04 -72.09)" fill="#25519a"/><path d="M103.62,113.75c-1.45,0-1.88-.61-1.42-1.87A2.2,2.2,0,0,1,103.62,113.75Z" transform="translate(0.04 -72.09)" fill="#25519a"/><path d="M61.55,137.49c-1.33.94-1.83.95-2.21,0C61.13,136.69,61.13,136.69,61.55,137.49Z" transform="translate(0.04 -72.09)" fill="#25519a"/><path d="M78.92,142.78h.92l.65,2.28C79.44,144.64,79.22,143.76,78.92,142.78Z" transform="translate(0.04 -72.09)" fill="#25519a"/><path d="M346.68,231.62c.06,0,.15-.1.17-.08l2.47,2.55A3.07,3.07,0,0,1,346.68,231.62Z" transform="translate(0.04 -72.09)" fill="#25519a"/><path d="M115.54,104.46c-.41.78-.43.78-3,.37A4.23,4.23,0,0,1,115.54,104.46Z" transform="translate(0.04 -72.09)" fill="#25519a"/><path d="M282.13,101.86c-.45-.54-.22-.89.06-1.29a2.07,2.07,0,0,1,1.72,1Z" transform="translate(0.04 -72.09)" fill="#25519a"/><path d="M313.82,205.8l.09,1h.44v1.11l-.64-.12-.06.87A2.47,2.47,0,0,1,313.82,205.8Z" transform="translate(0.04 -72.09)" fill="#25519a"/><path d="M256.75,99.27l-.59-.48c.06-.13.08-.26.15-.28.63-.24,1.16-1,2.09-.33Z" transform="translate(0.04 -72.09)" fill="#25519a"/><path d="M207.31,160c-1-.6-1-1.18.13-2A2.1,2.1,0,0,1,207.31,160Z" transform="translate(0.04 -72.09)" fill="#25519a"/><path d="M209.83,141.91l-1-.95c.21-.17.3-.32.41-.33.27,0,.57,0,.55-.41,0-.05.2-.13.31-.14a.24.24,0,0,1,.2.17,3.44,3.44,0,0,1,0,1C210.28,141.4,210.08,141.57,209.83,141.91Z" transform="translate(0.04 -72.09)" fill="#25519a"/><path d="M310.55,194.24c.85-.17.87-.18.91.38.06.72.07,1.43.11,2.16-.41-.24-.44-.23-.5-.74A3.11,3.11,0,0,0,310.55,194.24Z" transform="translate(0.04 -72.09)" fill="#25519a"/><path d="M306.31,195.85c0,.3,0,.71-.16.89-.63.63-.85,1.67-2,1.92,0-.14,0-.31.07-.35a4,4,0,0,0,1.52-2,5.22,5.22,0,0,1,.34-.48Z" transform="translate(0.04 -72.09)" fill="#25519a"/><path d="M309.34,196c.31-.12.44.41.82.2.13-.08.19,0,.1.65l0,0a1.35,1.35,0,0,0-.83,1.09l-1-.83a1,1,0,0,0,.93-1.09Z" transform="translate(0.04 -72.09)" fill="#25519a"/><path d="M368.52,129.87v-.52l1.31-.25,1.25.9-.43.56-.76-1Z" transform="translate(0.04 -72.09)" fill="#25519a"/><path d="M249.48,98.3l.51-.25-.6-.56a1.5,1.5,0,0,1,1.72,0C250.55,98.49,250.55,98.49,249.48,98.3Z" transform="translate(0.04 -72.09)" fill="#25519a"/><path d="M327.92,108.59a5.5,5.5,0,0,1,.79.12c.16.05.41.16.43.28a.78.78,0,0,1-.18.59,2.44,2.44,0,0,1-.67.37C327.88,109.5,327.88,109.5,327.92,108.59Z" transform="translate(0.04 -72.09)" fill="#25519a"/><path d="M252.18,99.62c-.3.29-.47.89-1.06.48a.25.25,0,0,0-.25,0c-.3.51-.65.17-1.07.15.29-.57,1-.4,1.15-.64C251.41,99.05,251.77,99.66,252.18,99.62Z" transform="translate(0.04 -72.09)" fill="#25519a"/><path d="M140.88,148.31a3.39,3.39,0,0,1,2.56,1.33A3.77,3.77,0,0,1,140.88,148.31Z" transform="translate(0.04 -72.09)" fill="#25519a"/><path d="M309.29,218.2a2.82,2.82,0,0,1-2.74.18c.32-.37.32-.37,1.33-.29Z" transform="translate(0.04 -72.09)" fill="#25519a"/><path d="M252.17,117.68l1.74,1.17c-.92.38-1.42-.16-1.93-.43C251.69,118.27,251.84,117.9,252.17,117.68Z" transform="translate(0.04 -72.09)" fill="#25519a"/><path d="M338.88,216.43c-1-.32-1.34-.79-1.37-2.12C338,215.11,338.77,215.42,338.88,216.43Z" transform="translate(0.04 -72.09)" fill="#25519a"/><path d="M146.72,270.13l-2.07,1a2,2,0,0,1,.91-1.4C145.71,269.63,146.17,269.94,146.72,270.13Z" transform="translate(0.04 -72.09)" fill="#25519a"/><path d="M304.74,217.81l1.14.58,0,.22c-.53.08-1.06.17-1.59.2-.13,0-.26-.21-.39-.33.14-.08.31-.25.42-.22C304.63,218.37,304.85,218.35,304.74,217.81Z" transform="translate(0.04 -72.09)" fill="#25519a"/><path d="M128.3,187a1.83,1.83,0,0,1,2,.3C129.49,188,129.38,188,128.3,187Z" transform="translate(0.04 -72.09)" fill="#25519a"/><path d="M131.56,121.45c-.32.34-.5.66-.78.8s-.55-.26-.54-.64.15-.69.55-.65C131,121,131.23,121.22,131.56,121.45Z" transform="translate(0.04 -72.09)" fill="#25519a"/><path d="M144.71,152.49l-.66,1.87a.46.46,0,0,1-.44-.6,2.46,2.46,0,0,1,.91-1.41Z" transform="translate(0.04 -72.09)" fill="#25519a"/><path d="M151.41,151.17c.41,0,.76-.16.77-.89a9,9,0,0,1,.28,1.16.82.82,0,0,1-.23.59c-.19.17-.34,0-.41-.22a2.66,2.66,0,0,0-.5,0l.12-.7Z" transform="translate(0.04 -72.09)" fill="#25519a"/><path d="M229.75,167.59c.19.5-.12.68-.45.85a.77.77,0,0,1-1.07-.26C228.63,167.68,229.23,167.73,229.75,167.59Z" transform="translate(0.04 -72.09)" fill="#25519a"/><path d="M316.12,212.34,314,212.1l0-.28a3,3,0,0,1,2.19.28Z" transform="translate(0.04 -72.09)" fill="#25519a"/><path d="M213.41,120.33l.82.07c-.31.87-.63,1-1.31.66.09-.13.19-.26.27-.39A3.35,3.35,0,0,0,213.41,120.33Z" transform="translate(0.04 -72.09)" fill="#25519a"/><path d="M92.44,108.59l-.73-.19,1.14-1.32C93,107.65,93,107.65,92.44,108.59Z" transform="translate(0.04 -72.09)" fill="#25519a"/><path d="M48.07,133.4a5,5,0,0,1,.9-.29c.17,0,.37.13.56.2-.13.17-.24.48-.37.49a6,6,0,0,1-1.11-.12Z" transform="translate(0.04 -72.09)" fill="#25519a"/><path d="M244.18,119.34l-.5,1c-.59-.36-.78-.72-.56-1S243.73,119.11,244.18,119.34Z" transform="translate(0.04 -72.09)" fill="#25519a"/><path d="M220.37,167.62c.77.28,1.66-.14,2.45.4A2.3,2.3,0,0,1,220.37,167.62Z" transform="translate(0.04 -72.09)" fill="#25519a"/><path d="M219,137.23a3,3,0,0,1-.18-.24c0-.09-.06-.18-.12-.35.38-.2.72-.49,1.25-.23C219.92,137,219.43,137.06,219,137.23Z" transform="translate(0.04 -72.09)" fill="#25519a"/><path d="M96.19,103.94c-.31.19-.48.36-.66.37-.34,0-.62-.17-.57-.51a.68.68,0,0,1,.5-.43C95.68,103.41,95.87,103.67,96.19,103.94Z" transform="translate(0.04 -72.09)" fill="#25519a"/><path d="M122.8,130.38l1.66-.94C124.06,130.26,123.65,130.53,122.8,130.38Z" transform="translate(0.04 -72.09)" fill="#25519a"/><path d="M368.55,134.11c-.36.31-.61.68-1.06.38a.41.41,0,0,1,0-.68C367.83,133.52,368.16,133.76,368.55,134.11Z" transform="translate(0.04 -72.09)" fill="#25519a"/><path d="M182.45,108.35l1,.6c-.35.19-.68.64-1.11.28A.52.52,0,0,1,182.45,108.35Z" transform="translate(0.04 -72.09)" fill="#25519a"/><path d="M216.41,137.68l-.59,1.44C215.27,138.44,215.4,138.09,216.41,137.68Z" transform="translate(0.04 -72.09)" fill="#25519a"/><path d="M335.4,116.05l1,1.11-1.4.11Z" transform="translate(0.04 -72.09)" fill="#25519a"/><path d="M309.37,196c-.2.11-.39.24-.59.34s-.24.1-.51.21l.22-1.2c.57-.09.78.21.85.67Z" transform="translate(0.04 -72.09)" fill="#25519a"/><path d="M307.43,220.19c-.66.32-1-.27-1.59-.46C306.69,219.43,307,219.54,307.43,220.19Z" transform="translate(0.04 -72.09)" fill="#25519a"/><path d="M307.66,193.1c.14.42.29.83.43,1.25l-.18.09-1-1.31h.73Z" transform="translate(0.04 -72.09)" fill="#25519a"/><path d="M140.94,152.69c.12,0,.34-.1.35-.07.25.53.75.44,1.19.47a.41.41,0,0,1,.43.48l-1.14-.11,0,0-.82-.83Z" transform="translate(0.04 -72.09)" fill="#25519a"/><path d="M358.7,229.29c.15-.51.54-.51.93-.38.09,0,.16.37.1.5S359.29,229.59,358.7,229.29Z" transform="translate(0.04 -72.09)" fill="#25519a"/><path d="M144,269.75l.65.05c.06,0,.11.05.2.1a1.81,1.81,0,0,1-1.26.94Z" transform="translate(0.04 -72.09)" fill="#25519a"/><path d="M294.73,211.68c-.68-.15-.5-.87-1-1.24C294.58,210.42,294.8,210.74,294.73,211.68Z" transform="translate(0.04 -72.09)" fill="#25519a"/><path d="M346.15,136.72a.9.9,0,0,1,.62-1.2C347,136.21,346.29,136.32,346.15,136.72Z" transform="translate(0.04 -72.09)" fill="#25519a"/><path d="M58.92,185.83l-.63.41a1.23,1.23,0,0,1-.23-.22c-.25-.42,0-.64.42-.89Z" transform="translate(0.04 -72.09)" fill="#25519a"/><path d="M131.06,270l.25-1.26.64.68-.58.7Z" transform="translate(0.04 -72.09)" fill="#25519a"/><path d="M117.18,105l.21-1,.25,0c.1.2.29.39.3.58C118,104.91,117.66,105,117.18,105Z" transform="translate(0.04 -72.09)" fill="#25519a"/><path d="M313.29,212.25A1,1,0,0,1,312,212C312.44,211.92,312.89,211.53,313.29,212.25Z" transform="translate(0.04 -72.09)" fill="#25519a"/><path d="M192.72,137.51c.08-.57,0-1.1.76-1.31C193.38,136.75,193.45,137.27,192.72,137.51Z" transform="translate(0.04 -72.09)" fill="#25519a"/><path d="M319.34,216.3l.21-1.29C320.11,215.32,320.1,215.57,319.34,216.3Z" transform="translate(0.04 -72.09)" fill="#25519a"/><path d="M215.39,119.67l-.71.34c-.06-.61-.06-.61.61-1.06,0,.29.05.52.07.75Z" transform="translate(0.04 -72.09)" fill="#25519a"/><path d="M331.34,155.86l1.47-1.11c0,.95-1,.79-1.28,1.3Z" transform="translate(0.04 -72.09)" fill="#25519a"/><path d="M268.8,114.5c.66-.93.66-.93,1.41-.51Z" transform="translate(0.04 -72.09)" fill="#25519a"/><path d="M309.44,213.59l.42-.06c-.27.39.23.83-.34,1.19l-.46-.53.41-.63Z" transform="translate(0.04 -72.09)" fill="#25519a"/><path d="M138.84,187.1h1.08C139.55,187.74,139.44,187.75,138.84,187.1Z" transform="translate(0.04 -72.09)" fill="#25519a"/><path d="M128.23,118.12c-.54.83-.54.83-1.38.45Z" transform="translate(0.04 -72.09)" fill="#25519a"/><path d="M132.88,160.18h1.25l0,.19-1.44.3.19-.52Z" transform="translate(0.04 -72.09)" fill="#25519a"/><path d="M132.42,261.42c-.41.16.36,1-.5.88C131.7,261.54,131.7,261.54,132.42,261.42Z" transform="translate(0.04 -72.09)" fill="#25519a"/><path d="M51.46,141.56l-1.38.52C50.5,141.27,50.55,141.25,51.46,141.56Z" transform="translate(0.04 -72.09)" fill="#25519a"/><path d="M145.32,153.33c-.1.61-.1.61-.58.91C144.63,153.61,144.63,153.61,145.32,153.33Z" transform="translate(0.04 -72.09)" fill="#25519a"/><path d="M246.33,99.91c.46-.33.85-.51,1.17.17C247,100.38,246.7,100.13,246.33,99.91Z" transform="translate(0.04 -72.09)" fill="#25519a"/><path d="M262.85,111.81c.47.75.47.75-.4.92Z" transform="translate(0.04 -72.09)" fill="#25519a"/><path d="M349.78,226.63c.28.17.49.23.52.33s.07.54,0,.59c-.34.19-.43-.12-.5-.37A3.16,3.16,0,0,1,349.78,226.63Z" transform="translate(0.04 -72.09)" fill="#25519a"/><path d="M343.09,219.53c-.59.28-.59.28-.9-.25Z" transform="translate(0.04 -72.09)" fill="#25519a"/><path d="M109.5,99.87l.54.9C109.32,100.62,109.32,100.62,109.5,99.87Z" transform="translate(0.04 -72.09)" fill="#25519a"/><path d="M210.26,142c-.61.76-.61.76-1.15.28Z" transform="translate(0.04 -72.09)" fill="#25519a"/><path d="M249.33,96.47l1-.33a.79.79,0,0,1-1,.55Z" transform="translate(0.04 -72.09)" fill="#25519a"/><path d="M360.78,227.18c-.1.76-.56.77-1.13.86C359.91,227.52,360.31,227.43,360.78,227.18Z" transform="translate(0.04 -72.09)" fill="#25519a"/><path d="M252.17,100.93c.24-.42.46-.66.72-.32.07.1,0,.29,0,.43Z" transform="translate(0.04 -72.09)" fill="#25519a"/><path d="M349.64,263.74l.54.85-.68.24Z" transform="translate(0.04 -72.09)" fill="#25519a"/><path d="M105.87,106.34l-.59.15c-.24-.2-.29-.5,0-.62S105.91,105.88,105.87,106.34Z" transform="translate(0.04 -72.09)" fill="#25519a"/><path d="M141.07,129.11l.85.14c-.37.22-.52.38-.69.4s-.2-.24-.3-.37Z" transform="translate(0.04 -72.09)" fill="#25519a"/><path d="M351.52,118.52c-.18.08-.28.16-.34.14a2.14,2.14,0,0,1-.52-.32s.06-.23.06-.23a2.89,2.89,0,0,1,.58.14C351.37,118.28,351.42,118.39,351.52,118.52Z" transform="translate(0.04 -72.09)" fill="#25519a"/><path d="M342,218.08l-.94-.74C341.77,217.2,341.82,217.7,342,218.08Z" transform="translate(0.04 -72.09)" fill="#25519a"/><path d="M271,112.94c-.16.14-.3.33-.35.31a2.54,2.54,0,0,1-.46-.35c.13-.12.26-.31.4-.33S270.79,112.78,271,112.94Z" transform="translate(0.04 -72.09)" fill="#25519a"/><path d="M104.67,105c-.2-.25-.63-.42-.38-.9C104.79,104.24,104.81,104.57,104.67,105Z" transform="translate(0.04 -72.09)" fill="#25519a"/><path d="M116,209.1l-.55.35v-1.1Z" transform="translate(0.04 -72.09)" fill="#25519a"/><path d="M296.51,211.84l-.8.12c0-.12-.1-.29,0-.34C295.87,211.41,296.1,211.37,296.51,211.84Z" transform="translate(0.04 -72.09)" fill="#25519a"/><path d="M117.41,106.52s0-.06,0-.09c-.06-.22-.4-.47,0-.62.07,0,.24.08.28.16.12.32,0,.5-.35.53Z" transform="translate(0.04 -72.09)" fill="#25519a"/><path d="M145.09,285.6l.89-.5.12.21-.86.52Z" transform="translate(0.04 -72.09)" fill="#25519a"/><path d="M202.08,161.66l.36.47-.61.53.06-1Z" transform="translate(0.04 -72.09)" fill="#25519a"/><path d="M218.7,116.65l1-.46a.93.93,0,0,1-.95.69Z" transform="translate(0.04 -72.09)" fill="#25519a"/><path d="M225.12,102.66l.91.09,0,.17h-.89Z" transform="translate(0.04 -72.09)" fill="#25519a"/><path d="M281,98.2l.95-.07c-.3.47-.59.47-.9.36Z" transform="translate(0.04 -72.09)" fill="#25519a"/><path d="M322,224.58c-.14.08-.25.19-.32.18s-.16-.15-.24-.23l.3-.27Z" transform="translate(0.04 -72.09)" fill="#25519a"/><path d="M250.65,230.94c.14.25.21.47-.09.63a.27.27,0,0,1-.26,0C250.13,231.2,250.34,231.06,250.65,230.94Z" transform="translate(0.04 -72.09)" fill="#25519a"/><path d="M127.51,130.5l-.21.84c-.63-.46-.16-.64,0-.87Z" transform="translate(0.04 -72.09)" fill="#25519a"/><path d="M316.85,208.64c-.46.4-.72.28-1-.07Z" transform="translate(0.04 -72.09)" fill="#25519a"/><path d="M217.11,134.22l-.43-.35c.06-.07.16-.21.18-.2a3.2,3.2,0,0,1,.45.3Z" transform="translate(0.04 -72.09)" fill="#25519a"/><path d="M126.23,144.65l-1-.36C125.75,144.08,125.75,144.08,126.23,144.65Z" transform="translate(0.04 -72.09)" fill="#25519a"/><path d="M48,143.84c.16-.21-.08-1,.67-.64Z" transform="translate(0.04 -72.09)" fill="#25519a"/><path d="M144,195.89l.11.75c-.15,0-.24,0-.26,0C143.61,196.4,143.47,196.15,144,195.89Z" transform="translate(0.04 -72.09)" fill="#25519a"/><path d="M245,100.9l.57-.37C245.76,101.25,245.34,101.09,245,100.9Z" transform="translate(0.04 -72.09)" fill="#25519a"/><path d="M193.21,137.9l.46,1A.77.77,0,0,1,193.21,137.9Z" transform="translate(0.04 -72.09)" fill="#25519a"/><path d="M302.24,217.76l-.2-.42.74.1c0,.52-.18.71-.58.29Z" transform="translate(0.04 -72.09)" fill="#25519a"/><path d="M310.26,196.89h.09l.52.25c-.08.08-.16.23-.24.23-.35,0-.38-.25-.34-.53Z" transform="translate(0.04 -72.09)" fill="#25519a"/><path d="M220.08,117.45l-.29-.35a1.66,1.66,0,0,1,.34-.25s.18.11.17.15A3.55,3.55,0,0,1,220.08,117.45Z" transform="translate(0.04 -72.09)" fill="#25519a"/><path d="M323.19,142.47c-.12.07-.26.2-.36.17s-.19-.2-.28-.31c.12-.09.23-.25.34-.25s.3.1.45.16Z" transform="translate(0.04 -72.09)" fill="#25519a"/><path d="M334.17,154.09l-.43.6-.21-.13.37-.63Z" transform="translate(0.04 -72.09)" fill="#25519a"/><path d="M301.11,238.43l-.19.31-.43-.67Z" transform="translate(0.04 -72.09)" fill="#25519a"/><path d="M107.24,104l.69.24c0,.13,0,.21-.08.23C107.52,104.68,107.32,104.58,107.24,104Z" transform="translate(0.04 -72.09)" fill="#25519a"/><path d="M216.52,100.33a.84.84,0,0,1-.94-.3c.44-.06.76-.13.92.33Z" transform="translate(0.04 -72.09)" fill="#25519a"/><path d="M179.22,124.31l-.55-.12,0-.18.55.14Z" transform="translate(0.04 -72.09)" fill="#25519a"/><path d="M141.2,274.26l-.56,0v-.21h.55Z" transform="translate(0.04 -72.09)" fill="#25519a"/><path d="M124.45,183.41c0-.18,0-.36,0-.54l.16,0a4.86,4.86,0,0,1,.11.55Z" transform="translate(0.04 -72.09)" fill="#25519a"/><path d="M132.73,121.55c-.21.08-.33.17-.42.14s-.16-.15-.23-.24c.1-.07.19-.19.29-.19S132.55,121.4,132.73,121.55Z" transform="translate(0.04 -72.09)" fill="#25519a"/><path d="M310.12,195.14l-.6-.24.08-.23.67.25Z" transform="translate(0.04 -72.09)" fill="#25519a"/><path d="M128.94,180.21c-.25.06-.37.13-.45.09a.48.48,0,0,1-.18-.27s.15-.17.18-.16A3.72,3.72,0,0,1,128.94,180.21Z" transform="translate(0.04 -72.09)" fill="#25519a"/><path d="M288.06,209.58l.33.84C287.83,210.22,287.89,209.92,288.06,209.58Z" transform="translate(0.04 -72.09)" fill="#25519a"/><path d="M322,249.66h.68C322.43,250.06,322.22,250,322,249.66Z" transform="translate(0.04 -72.09)" fill="#25519a"/><path d="M300.64,111.06c-.05.11-.05.28-.13.32s-.28.05-.51-.08l.47-.39Z" transform="translate(0.04 -72.09)" fill="#25519a"/><path d="M144.15,286.43l-.54-.1,0-.18.55.12Z" transform="translate(0.04 -72.09)" fill="#25519a"/><path d="M334.5,212l.71.31-.09.18-.69-.35Z" transform="translate(0.04 -72.09)" fill="#25519a"/><path d="M339.4,216.23l.66.74C339.54,216.94,339.45,216.73,339.4,216.23Z" transform="translate(0.04 -72.09)" fill="#25519a"/><path d="M300.63,215.57h.65v.17h-.65Z" transform="translate(0.04 -72.09)" fill="#25519a"/><path d="M127.72,138.92l-.08.7-.16,0,0-.7Z" transform="translate(0.04 -72.09)" fill="#25519a"/><path d="M47.22,143.66l-.49.39-.09-.1.44-.45Z" transform="translate(0.04 -72.09)" fill="#25519a"/><path d="M303.73,217.78l-.09.51-.26-.06.11-.48Z" transform="translate(0.04 -72.09)" fill="#25519a"/><path d="M340.29,218.3c-.07-.16-.14-.32-.2-.49,0,0,.14-.08.15-.07l.27.45Z" transform="translate(0.04 -72.09)" fill="#25519a"/><path d="M216.11,118.2l.17-.69c.24.48.24.48-.19.67Z" transform="translate(0.04 -72.09)" fill="#25519a"/><path d="M216.09,118.18c0,.12,0,.31,0,.34a1.08,1.08,0,0,1-.41,0c0-.12,0-.28.11-.34s.23,0,.35,0Z" transform="translate(0.04 -72.09)" fill="#25519a"/><path d="M61.54,136.16l-.55.2C61.08,135.8,61.08,135.8,61.54,136.16Z" transform="translate(0.04 -72.09)" fill="#25519a"/><path d="M127,107.47l.55-.21.1.11c-.09.11-.15.25-.25.3s-.24,0-.36,0Z" transform="translate(0.04 -72.09)" fill="#25519a"/><path d="M95.74,105.81a1.52,1.52,0,0,1-.32.23s-.16-.13-.15-.18a.36.36,0,0,1,.17-.21C95.5,105.63,95.59,105.72,95.74,105.81Z" transform="translate(0.04 -72.09)" fill="#25519a"/><path d="M251.31,96c-.12.07-.22.17-.25.15a1.1,1.1,0,0,1-.23-.25c.08,0,.16-.09.24-.08S251.2,95.9,251.31,96Z" transform="translate(0.04 -72.09)" fill="#25519a"/><path d="M286.93,207.14l-.49-.56.65.38Z" transform="translate(0.04 -72.09)" fill="#25519a"/><path d="M314.34,206l-.15-.51.17-.07.25.5Z" transform="translate(0.04 -72.09)" fill="#25519a"/><path d="M343.92,220.42l.47.32-.08.15-.5-.25Z" transform="translate(0.04 -72.09)" fill="#25519a"/><path d="M249.18,98.16l-.5-.12,0-.17.5.14Z" transform="translate(0.04 -72.09)" fill="#25519a"/><path d="M97.75,160l-.55-.7s.07-.11.11-.11C97.76,159.14,97.91,159.33,97.75,160Z" transform="translate(0.04 -72.09)" fill="#25519a"/><path d="M77.68,138l-.22-.4.25,0-.06.47Z" transform="translate(0.04 -72.09)" fill="#25519a"/><path d="M124.93,154.29l-.62-.16,0-.18.61.19Z" transform="translate(0.04 -72.09)" fill="#25519a"/><path d="M317.4,285.23a106.5,106.5,0,0,1-52.63-13.89,106.61,106.61,0,0,1-105.41-.1,106.57,106.57,0,1,1,0-185.16A106.61,106.61,0,0,1,264.77,86,106.58,106.58,0,1,1,317.4,285.23Zm-52.63-16.09.48.27a104.66,104.66,0,1,0,0-181.5l-.48.27-.47-.27A104.74,104.74,0,0,0,159.83,88l-.47.28-.48-.28a104.66,104.66,0,1,0,0,181.32l.48-.28.47.28a104.74,104.74,0,0,0,104.47.09ZM211,184.91c-.13-2-.19-4-.19-6.24s.06-4.26.19-6.24h1.9c.12,2,.18,4.14.18,6.23s-.06,4.19-.18,6.23Z" transform="translate(0.04 -72.09)" fill="#25519a"/><path d="M212.15,178.67q0,3.12-.17,6.18-.19-3.06-.19-6.18t.19-6.18Q212.15,175.55,212.15,178.67Z" transform="translate(0.04 -72.09)" fill="none" stroke="#25519a" stroke-miterlimit="10" stroke-width="1.91"/><path d="M212.15,178.67q0,3.12-.17,6.18-.19-3.06-.19-6.18t.19-6.18Q212.15,175.55,212.15,178.67Z" transform="translate(0.04 -72.09)" fill="none" stroke="#25519a" stroke-miterlimit="10" stroke-width="1.91"/><path d="M212.15,178.67q0,3.12-.17,6.18-.19-3.06-.19-6.18t.19-6.18Q212.15,175.55,212.15,178.67Z" transform="translate(0.04 -72.09)" fill="none" stroke="#25519a" stroke-miterlimit="10" stroke-width="1.91"/></svg>